<svg width="32" height="32" viewBox="0 0 32 32" fill="none" xmlns="http://www.w3.org/2000/svg">
<path d="M12 6C10.9391 6 9.9217 6.42143 9.17155 7.17158C8.4214 7.92172 7.99998 8.93914 7.99998 10C7.25455 10.0569 6.53998 10.3215 5.93733 10.7639C5.33468 11.2063 4.86806 11.8087 4.59042 12.5028C4.31277 13.197 4.2352 13.955 4.36651 14.691C4.49782 15.4269 4.83275 16.1114 5.33331 16.6667C4.83275 17.2219 4.49782 17.9064 4.36651 18.6424C4.2352 19.3783 4.31277 20.1364 4.59042 20.8305C4.86806 21.5246 5.33468 22.127 5.93733 22.5694C6.53998 23.0118 7.25455 23.2765 7.99998 23.3333C8.15722 24.0233 8.49466 24.6591 8.97789 25.176C9.46111 25.693 10.0728 26.0725 10.7506 26.2758C11.4283 26.4791 12.1479 26.499 12.8359 26.3334C13.5239 26.1679 14.1556 25.8228 14.6666 25.3333V6C13.8039 5.69499 12.8627 5.69499 12 6Z" stroke="#F8A20D" stroke-width="2" stroke-linecap="round" stroke-linejoin="round"/>
<path d="M20 6C21.0609 6 22.0783 6.42143 22.8284 7.17157C23.5786 7.92172 24 8.93913 24 10C24.7454 10.0569 25.46 10.3215 26.0627 10.7639C26.6653 11.2063 27.1319 11.8087 27.4096 12.5028C27.6872 13.197 27.7648 13.955 27.6335 14.691C27.5022 15.4269 27.1672 16.1114 26.6667 16.6667C27.1672 17.2219 27.5022 17.9064 27.6335 18.6424C27.7648 19.3783 27.6872 20.1364 27.4096 20.8305C27.1319 21.5246 26.6653 22.127 26.0627 22.5694C25.46 23.0118 24.7454 23.2765 24 23.3333C23.8428 24.0233 23.5053 24.6591 23.0221 25.176C22.5389 25.693 21.9272 26.0724 21.2494 26.2758C20.5716 26.4791 19.8521 26.499 19.1641 26.3334C18.4761 26.1679 17.8444 25.8228 17.3333 25.3333V6" stroke="#F8A20D" stroke-width="2" stroke-linecap="round" stroke-linejoin="round"/>
</svg>
