<svg width="32" height="32" viewBox="0 0 32 32" fill="none" xmlns="http://www.w3.org/2000/svg">
<path d="M12 22.6667V6.66667L26.6667 4V20" stroke="#F8A20D" stroke-width="2" stroke-linecap="round" stroke-linejoin="round"/>
<path d="M8.66666 25.9999C10.5076 25.9999 12 24.5075 12 22.6666C12 20.8256 10.5076 19.3333 8.66666 19.3333C6.82571 19.3333 5.33333 20.8256 5.33333 22.6666C5.33333 24.5075 6.82571 25.9999 8.66666 25.9999Z" stroke="#F8A20D" stroke-width="2" stroke-linecap="round" stroke-linejoin="round"/>
<path d="M23.3333 23.3334C25.1743 23.3334 26.6667 21.841 26.6667 20.0001C26.6667 18.1591 25.1743 16.6667 23.3333 16.6667C21.4924 16.6667 20 18.1591 20 20.0001C20 21.841 21.4924 23.3334 23.3333 23.3334Z" stroke="#F8A20D" stroke-width="2" stroke-linecap="round" stroke-linejoin="round"/>
</svg>
