<svg width="552" height="442" viewBox="0 0 552 442" fill="none" xmlns="http://www.w3.org/2000/svg">
<rect width="552" height="441.594" fill="#110A0C"/>
<rect x="0.5" y="0.5" width="551" height="440.594" stroke="#F5EEDE" stroke-opacity="0.12"/>
<g clip-path="url(#clip0_503_1432)">
<path d="M550.746 1H1.25378V440.594H550.746V1Z" fill="url(#paint0_radial_503_1432)"/>
<g opacity="0.55">
<path d="M276 264.756C300.278 264.756 319.959 245.075 319.959 220.797C319.959 196.519 300.278 176.838 276 176.838C251.722 176.838 232.041 196.519 232.041 220.797C232.041 245.075 251.722 264.756 276 264.756Z" stroke="#F8A20D" stroke-width="1.09898"/>
<path d="M276 308.716C324.556 308.716 363.919 269.353 363.919 220.797C363.919 172.241 324.556 132.878 276 132.878C227.444 132.878 188.081 172.241 188.081 220.797C188.081 269.353 227.444 308.716 276 308.716Z" stroke="#F8A20D" stroke-width="1.09898" stroke-dasharray="2.2 4.4"/>
<path d="M276 363.665C354.904 363.665 418.868 299.701 418.868 220.797C418.868 141.893 354.904 77.929 276 77.929C197.096 77.929 133.132 141.893 133.132 220.797C133.132 299.701 197.096 363.665 276 363.665Z" stroke="#F8A20D" stroke-width="1.09898"/>
<path opacity="0.5" d="M276 418.614C385.251 418.614 473.817 330.048 473.817 220.797C473.817 111.546 385.251 22.9797 276 22.9797C166.749 22.9797 78.1827 111.546 78.1827 220.797C78.1827 330.048 166.749 418.614 276 418.614Z" stroke="#F8A20D" stroke-width="1.09898" stroke-dasharray="2.2 4.4"/>
</g>
<path d="M276 236.183C284.497 236.183 291.386 229.294 291.386 220.797C291.386 212.3 284.497 205.411 276 205.411C267.503 205.411 260.614 212.3 260.614 220.797C260.614 229.294 267.503 236.183 276 236.183Z" fill="#8D1514"/>
<path d="M276 225.193C278.428 225.193 280.396 223.225 280.396 220.797C280.396 218.369 278.428 216.401 276 216.401C273.572 216.401 271.604 218.369 271.604 220.797C271.604 223.225 273.572 225.193 276 225.193Z" fill="#F5EEDE"/>
<path d="M276 138.373C279.035 138.373 281.495 135.913 281.495 132.878C281.495 129.843 279.035 127.383 276 127.383C272.965 127.383 270.505 129.843 270.505 132.878C270.505 135.913 272.965 138.373 276 138.373Z" fill="#F8A20D"/>
<path d="M363.919 226.292C366.954 226.292 369.414 223.832 369.414 220.797C369.414 217.762 366.954 215.302 363.919 215.302C360.884 215.302 358.424 217.762 358.424 220.797C358.424 223.832 360.884 226.292 363.919 226.292Z" fill="#F8A20D"/>
<path d="M188.081 226.292C191.116 226.292 193.576 223.832 193.576 220.797C193.576 217.762 191.116 215.302 188.081 215.302C185.046 215.302 182.586 217.762 182.586 220.797C182.586 223.832 185.046 226.292 188.081 226.292Z" fill="#F8A20D"/>
<path d="M276 314.211C279.035 314.211 281.495 311.751 281.495 308.716C281.495 305.681 279.035 303.221 276 303.221C272.965 303.221 270.505 305.681 270.505 308.716C270.505 311.751 272.965 314.211 276 314.211Z" fill="#F8A20D"/>
<path opacity="0.7" d="M418.868 148.264C421.296 148.264 423.264 146.296 423.264 143.868C423.264 141.44 421.296 139.472 418.868 139.472C416.44 139.472 414.472 141.44 414.472 143.868C414.472 146.296 416.44 148.264 418.868 148.264Z" fill="#F8A20D"/>
<path opacity="0.7" d="M133.132 302.122C135.56 302.122 137.528 300.154 137.528 297.726C137.528 295.298 135.56 293.33 133.132 293.33C130.704 293.33 128.736 295.298 128.736 297.726C128.736 300.154 130.704 302.122 133.132 302.122Z" fill="#F8A20D"/>
<path d="M272.41 113.206H271.442C271.384 112.927 271.284 112.683 271.141 112.472C271.001 112.261 270.829 112.084 270.626 111.941C270.426 111.795 270.203 111.686 269.959 111.613C269.714 111.54 269.459 111.504 269.194 111.504C268.71 111.504 268.271 111.626 267.879 111.871C267.488 112.115 267.177 112.476 266.946 112.952C266.717 113.428 266.602 114.012 266.602 114.704C266.602 115.396 266.717 115.98 266.946 116.456C267.177 116.933 267.488 117.293 267.879 117.537C268.271 117.782 268.71 117.904 269.194 117.904C269.459 117.904 269.714 117.868 269.959 117.795C270.203 117.722 270.426 117.614 270.626 117.471C270.829 117.325 271.001 117.147 271.141 116.936C271.284 116.723 271.384 116.479 271.442 116.203H272.41C272.337 116.611 272.204 116.977 272.011 117.299C271.819 117.622 271.58 117.896 271.293 118.123C271.007 118.347 270.686 118.517 270.329 118.634C269.976 118.751 269.597 118.81 269.194 118.81C268.512 118.81 267.906 118.643 267.375 118.31C266.844 117.977 266.427 117.504 266.122 116.89C265.818 116.276 265.666 115.547 265.666 114.704C265.666 113.861 265.818 113.133 266.122 112.519C266.427 111.905 266.844 111.431 267.375 111.098C267.906 110.765 268.512 110.599 269.194 110.599C269.597 110.599 269.976 110.657 270.329 110.774C270.686 110.891 271.007 111.063 271.293 111.289C271.58 111.513 271.819 111.786 272.011 112.109C272.204 112.429 272.337 112.794 272.41 113.206ZM274.301 118.7H273.287L276.221 110.708H277.221L280.155 118.7H279.141L276.752 111.972H276.69L274.301 118.7ZM274.676 115.578H278.766V116.437H274.676V115.578ZM281.4 110.708H282.555L285.272 117.342H285.365L288.082 110.708H289.237V118.7H288.331V112.628H288.253L285.756 118.7H284.881L282.384 112.628H282.306V118.7H281.4V110.708Z" fill="#F5EEDE"/>
<path d="M382.47 224.203V216.21H387.294V217.069H383.438V219.769H387.044V220.628H383.438V223.344H387.357V224.203H382.47ZM391.505 224.203H389.039V216.21H391.614C392.39 216.21 393.053 216.37 393.605 216.69C394.156 217.008 394.579 217.464 394.873 218.06C395.167 218.653 395.314 219.364 395.314 220.191C395.314 221.024 395.166 221.74 394.869 222.341C394.573 222.94 394.141 223.4 393.573 223.723C393.006 224.043 392.317 224.203 391.505 224.203ZM390.006 223.344H391.443C392.103 223.344 392.651 223.217 393.086 222.962C393.52 222.707 393.844 222.344 394.057 221.873C394.271 221.402 394.377 220.841 394.377 220.191C394.377 219.546 394.272 218.99 394.061 218.525C393.851 218.056 393.536 217.697 393.117 217.447C392.698 217.195 392.176 217.069 391.552 217.069H390.006V223.344ZM397.905 216.21V224.203H396.938V216.21H397.905ZM399.409 217.069V216.21H405.403V217.069H402.89V224.203H401.922V217.069H399.409Z" fill="#F5EEDE"/>
<path d="M154.209 224.203H153.195L156.129 216.21H157.129L160.063 224.203H159.049L156.66 217.475H156.598L154.209 224.203ZM154.584 221.081H158.674V221.939H154.584V221.081ZM162.276 216.21V224.203H161.308V216.21H162.276Z" fill="#F5EEDE"/>
<path d="M259.384 327.508V319.515H262.085C262.712 319.515 263.224 319.628 263.622 319.854C264.023 320.078 264.32 320.381 264.512 320.764C264.705 321.146 264.801 321.573 264.801 322.044C264.801 322.515 264.705 322.943 264.512 323.328C264.322 323.713 264.028 324.02 263.63 324.249C263.232 324.475 262.722 324.588 262.1 324.588H260.165V323.73H262.069C262.498 323.73 262.843 323.656 263.103 323.507C263.364 323.359 263.552 323.159 263.669 322.906C263.789 322.651 263.849 322.364 263.849 322.044C263.849 321.724 263.789 321.438 263.669 321.185C263.552 320.933 263.362 320.735 263.099 320.592C262.837 320.446 262.488 320.374 262.054 320.374H260.352V327.508H259.384ZM273.104 323.511C273.104 324.354 272.952 325.083 272.647 325.697C272.343 326.311 271.925 326.784 271.395 327.117C270.864 327.45 270.258 327.617 269.576 327.617C268.894 327.617 268.288 327.45 267.757 327.117C267.226 326.784 266.809 326.311 266.504 325.697C266.2 325.083 266.048 324.354 266.048 323.511C266.048 322.668 266.2 321.94 266.504 321.326C266.809 320.712 267.226 320.238 267.757 319.905C268.288 319.572 268.894 319.406 269.576 319.406C270.258 319.406 270.864 319.572 271.395 319.905C271.925 320.238 272.343 320.712 272.647 321.326C272.952 321.94 273.104 322.668 273.104 323.511ZM272.167 323.511C272.167 322.819 272.051 322.235 271.82 321.759C271.591 321.283 271.28 320.923 270.887 320.678C270.497 320.433 270.06 320.311 269.576 320.311C269.092 320.311 268.654 320.433 268.261 320.678C267.87 320.923 267.56 321.283 267.328 321.759C267.099 322.235 266.985 322.819 266.985 323.511C266.985 324.203 267.099 324.787 267.328 325.264C267.56 325.74 267.87 326.1 268.261 326.345C268.654 326.589 269.092 326.711 269.576 326.711C270.06 326.711 270.497 326.589 270.887 326.345C271.28 326.1 271.591 325.74 271.82 325.264C272.051 324.787 272.167 324.203 272.167 323.511ZM279.102 321.513C279.055 321.118 278.865 320.811 278.532 320.592C278.199 320.374 277.791 320.264 277.307 320.264C276.953 320.264 276.644 320.321 276.378 320.436C276.115 320.55 275.91 320.708 275.762 320.908C275.616 321.109 275.543 321.336 275.543 321.591C275.543 321.805 275.594 321.988 275.695 322.141C275.799 322.292 275.932 322.419 276.093 322.52C276.255 322.619 276.424 322.701 276.601 322.766C276.778 322.828 276.94 322.879 277.088 322.918L277.9 323.137C278.108 323.191 278.34 323.267 278.595 323.363C278.852 323.459 279.098 323.591 279.332 323.757C279.569 323.921 279.764 324.132 279.918 324.389C280.071 324.647 280.148 324.963 280.148 325.338C280.148 325.77 280.035 326.16 279.809 326.508C279.585 326.857 279.257 327.134 278.825 327.34C278.396 327.545 277.874 327.648 277.26 327.648C276.688 327.648 276.192 327.556 275.773 327.371C275.357 327.186 275.029 326.929 274.79 326.598C274.553 326.268 274.419 325.884 274.388 325.447H275.387C275.413 325.749 275.514 325.999 275.691 326.196C275.871 326.391 276.097 326.537 276.37 326.633C276.646 326.727 276.943 326.774 277.26 326.774C277.63 326.774 277.961 326.714 278.255 326.594C278.549 326.472 278.782 326.303 278.954 326.087C279.126 325.868 279.212 325.613 279.212 325.322C279.212 325.057 279.137 324.841 278.989 324.674C278.841 324.508 278.646 324.372 278.404 324.268C278.162 324.164 277.9 324.073 277.619 323.995L276.636 323.714C276.011 323.535 275.517 323.278 275.153 322.945C274.789 322.612 274.606 322.177 274.606 321.638C274.606 321.19 274.727 320.8 274.969 320.467C275.214 320.132 275.542 319.871 275.953 319.687C276.366 319.499 276.828 319.406 277.338 319.406C277.853 319.406 278.311 319.498 278.712 319.683C279.113 319.865 279.43 320.115 279.664 320.432C279.901 320.749 280.026 321.11 280.039 321.513H279.102ZM281.302 320.374V319.515H287.297V320.374H284.784V327.508H283.816V320.374H281.302Z" fill="#F5EEDE"/>
<path d="M18.8375 40.5634V18.5837H40.8172" stroke="#F8A20D" stroke-width="1.64848"/>
<path d="M533.162 40.5634V18.5837H511.183" stroke="#F8A20D" stroke-width="1.64848"/>
<path d="M18.8375 401.031V423.01H40.8172" stroke="#F8A20D" stroke-width="1.64848"/>
<path d="M533.162 401.031V423.01H511.183" stroke="#F8A20D" stroke-width="1.64848"/>
</g>
<g clip-path="url(#clip1_503_1432)">
<g clip-path="url(#clip2_503_1432)">
<path d="M509 59.3125C518.009 59.3125 525.312 52.0091 525.312 43C525.312 33.9909 518.009 26.6875 509 26.6875C499.991 26.6875 492.688 33.9909 492.688 43C492.688 52.0091 499.991 59.3125 509 59.3125Z" stroke="#F8A20D" stroke-width="1.575"/>
<path d="M509 53.125C514.592 53.125 519.125 48.5919 519.125 43C519.125 37.4081 514.592 32.875 509 32.875C503.408 32.875 498.875 37.4081 498.875 43C498.875 48.5919 503.408 53.125 509 53.125Z" stroke="#F8A20D" stroke-width="1.125"/>
<path d="M509 46.5999C510.988 46.5999 512.6 44.9881 512.6 42.9999C512.6 41.0117 510.988 39.3999 509 39.3999C507.012 39.3999 505.4 41.0117 505.4 42.9999C505.4 44.9881 507.012 46.5999 509 46.5999Z" fill="#8D1514"/>
<path opacity="0.9" d="M507.425 42.3249C507.922 42.3249 508.325 41.922 508.325 41.4249C508.325 40.9278 507.922 40.5249 507.425 40.5249C506.928 40.5249 506.525 40.9278 506.525 41.4249C506.525 41.922 506.928 42.3249 507.425 42.3249Z" fill="#F5EEDE"/>
<path d="M509 25.5625V28.9375" stroke="#F8A20D" stroke-width="1.125"/>
<path d="M509 57.0625V60.4375" stroke="#F8A20D" stroke-width="1.125"/>
<path d="M491.562 43H494.938" stroke="#F8A20D" stroke-width="1.125"/>
<path d="M523.062 43H526.438" stroke="#F8A20D" stroke-width="1.125"/>
</g>
</g>
<defs>
<radialGradient id="paint0_radial_503_1432" cx="0" cy="0" r="1" gradientUnits="userSpaceOnUse" gradientTransform="translate(276 220.797) scale(329.696 263.756)">
<stop stop-color="#F8A20D" stop-opacity="0.2"/>
<stop offset="0.6" stop-color="#8D1514" stop-opacity="0.1"/>
<stop offset="1" stop-color="#090506" stop-opacity="0"/>
</radialGradient>
<clipPath id="clip0_503_1432">
<rect width="550" height="439.594" fill="white" transform="translate(1 1)"/>
</clipPath>
<clipPath id="clip1_503_1432">
<rect width="36" height="36" fill="white" transform="translate(491 25)"/>
</clipPath>
<clipPath id="clip2_503_1432">
<rect width="36" height="36" fill="white" transform="translate(491 25)"/>
</clipPath>
</defs>
</svg>
