<svg width="510" height="842" viewBox="0 0 510 842" fill="none" xmlns="http://www.w3.org/2000/svg">
<rect x="77.5549" y="94.3022" width="320" height="660" rx="48" transform="rotate(-3 77.5549 94.3022)" fill="url(#paint0_linear_503_1176)"/>
<g filter="url(#filter0_ddd_503_1176)">
<rect x="77.5549" y="94.3022" width="320" height="660" rx="48" transform="rotate(-3 77.5549 94.3022)" fill="white" fill-opacity="0.01" shape-rendering="crispEdges"/>
</g>
<g clip-path="url(#clip0_503_1176)">
<rect x="88.0645" y="103.765" width="300" height="640" rx="38" transform="rotate(-3 88.0645 103.765)" fill="url(#paint1_linear_503_1176)"/>
<rect x="88.0645" y="103.765" width="300" height="640" rx="38" transform="rotate(-3 88.0645 103.765)" fill="url(#paint2_radial_503_1176)"/>
<rect x="88.0645" y="103.765" width="300" height="640" rx="38" transform="rotate(-3 88.0645 103.765)" fill="url(#paint3_radial_503_1176)"/>
<mask id="path-4-inside-1_503_1176" fill="white">
<path d="M115.175 162.425L135.145 161.379L136.191 181.348L116.221 182.395L115.175 162.425Z"/>
</mask>
<path d="M115.175 162.425L115.122 161.427L114.124 161.479L114.176 162.478L115.175 162.425ZM115.175 162.425L115.227 163.424L135.197 162.377L135.145 161.379L135.092 160.38L115.122 161.427L115.175 162.425ZM116.221 182.395L117.22 182.343L116.173 162.373L115.175 162.425L114.176 162.478L115.222 182.447L116.221 182.395Z" fill="#F8A20D" mask="url(#path-4-inside-1_503_1176)"/>
<mask id="path-6-inside-2_503_1176" fill="white">
<path d="M346.855 150.285L366.825 149.239L367.871 169.208L347.901 170.255L346.855 150.285Z"/>
</mask>
<path d="M366.825 149.239L367.823 149.186L367.771 148.188L366.772 148.24L366.825 149.239ZM346.855 150.285L346.907 151.284L366.877 150.237L366.825 149.239L366.772 148.24L346.802 149.287L346.855 150.285ZM366.825 149.239L365.826 149.291L366.873 169.261L367.871 169.208L368.87 169.156L367.823 149.186L366.825 149.239Z" fill="#F8A20D" mask="url(#path-6-inside-2_503_1176)"/>
<path d="M124.742 183.295C124.196 183.324 123.678 183.247 123.188 183.066C122.705 182.891 122.271 182.634 121.886 182.293C121.507 181.946 121.202 181.538 120.97 181.069C120.739 180.601 120.609 180.094 120.58 179.548C120.551 179.002 120.628 178.484 120.809 177.994C120.99 177.504 121.251 177.069 121.592 176.691C121.939 176.306 122.343 176.001 122.806 175.776C123.274 175.545 123.781 175.415 124.327 175.386C124.873 175.357 125.391 175.434 125.881 175.615C126.371 175.79 126.806 176.051 127.184 176.398C127.569 176.738 127.874 177.143 128.099 177.612C128.331 178.08 128.461 178.587 128.489 179.133C128.518 179.679 128.441 180.197 128.26 180.687C128.086 181.177 127.825 181.615 127.478 182C127.137 182.378 126.732 182.68 126.264 182.905C125.795 183.136 125.288 183.266 124.742 183.295ZM124.706 182.606C125.158 182.582 125.577 182.477 125.961 182.29C126.345 182.096 126.678 181.842 126.962 181.526C127.246 181.211 127.461 180.853 127.607 180.451C127.759 180.049 127.824 179.622 127.8 179.169C127.776 178.717 127.668 178.298 127.474 177.915C127.287 177.531 127.036 177.197 126.721 176.913C126.405 176.629 126.047 176.414 125.645 176.268C125.243 176.116 124.816 176.051 124.363 176.075C123.911 176.099 123.493 176.207 123.109 176.401C122.725 176.588 122.391 176.839 122.107 177.155C121.823 177.47 121.605 177.828 121.452 178.23C121.306 178.632 121.245 179.059 121.269 179.512C121.293 179.964 121.398 180.383 121.585 180.767C121.779 181.151 122.033 181.484 122.349 181.768C122.664 182.052 123.023 182.27 123.424 182.423C123.826 182.569 124.253 182.63 124.706 182.606ZM124.681 182.127C124.294 182.147 123.928 182.096 123.581 181.974C123.241 181.845 122.934 181.661 122.661 181.421C122.394 181.175 122.179 180.889 122.015 180.564C121.858 180.232 121.769 179.873 121.748 179.487C121.728 179.1 121.779 178.737 121.902 178.397C122.03 178.05 122.214 177.743 122.454 177.477C122.7 177.204 122.986 176.988 123.312 176.831C123.643 176.667 124.002 176.575 124.389 176.554C124.775 176.534 125.141 176.588 125.489 176.717C125.835 176.839 126.142 177.023 126.409 177.27C126.682 177.509 126.897 177.795 127.055 178.127C127.218 178.452 127.311 178.808 127.331 179.194C127.351 179.58 127.297 179.947 127.168 180.294C127.046 180.634 126.862 180.941 126.616 181.214C126.376 181.48 126.09 181.696 125.758 181.86C125.426 182.018 125.067 182.106 124.681 182.127ZM137.988 182.26L137.621 175.27L139.768 175.158C140.307 175.129 140.755 175.196 141.111 175.358C141.473 175.519 141.749 175.751 141.938 176.055C142.127 176.352 142.232 176.697 142.253 177.09C142.277 177.55 142.178 177.962 141.957 178.327C141.742 178.686 141.395 178.948 140.917 179.113L142.591 182.019L141.593 182.072L140.034 179.279L139.984 179.282L138.676 179.35L138.826 182.217L137.988 182.26ZM138.636 178.581L139.914 178.515C140.447 178.487 140.83 178.346 141.064 178.094C141.304 177.834 141.414 177.515 141.394 177.135C141.373 176.736 141.233 176.426 140.975 176.206C140.723 175.985 140.321 175.89 139.768 175.919L138.5 175.985L138.636 178.581ZM145.014 181.892L144.648 174.902L149.012 174.673L149.051 175.432L145.526 175.617L145.648 177.944L148.874 177.775L148.914 178.534L145.688 178.703L145.813 181.089L149.338 180.905L149.378 181.664L145.014 181.892ZM154.194 181.531C153.628 181.561 153.131 181.437 152.702 181.159C152.28 180.881 151.946 180.478 151.698 179.95C151.456 179.422 151.316 178.791 151.278 178.059C151.24 177.333 151.313 176.695 151.498 176.145C151.689 175.588 151.98 175.148 152.37 174.828C152.767 174.506 153.249 174.331 153.815 174.301C154.534 174.264 155.124 174.433 155.584 174.809C156.044 175.179 156.328 175.692 156.435 176.347L155.507 176.396C155.42 176.006 155.236 175.685 154.956 175.433C154.675 175.181 154.309 175.066 153.856 175.09C153.277 175.12 152.834 175.397 152.528 175.921C152.221 176.438 152.091 177.135 152.137 178.014C152.183 178.9 152.386 179.583 152.745 180.065C153.104 180.547 153.573 180.773 154.152 180.742C154.625 180.718 154.981 180.572 155.221 180.306C155.467 180.039 155.613 179.704 155.659 179.302L156.588 179.253C156.516 179.924 156.277 180.464 155.872 180.873C155.472 181.274 154.913 181.494 154.194 181.531ZM167.965 177.906C167.759 177.916 167.579 177.856 167.425 177.724C167.271 177.591 167.189 177.422 167.178 177.216C167.167 177.016 167.232 176.843 167.371 176.695C167.51 176.548 167.683 176.468 167.889 176.458C168.096 176.447 168.276 176.507 168.429 176.64C168.583 176.772 168.665 176.938 168.676 177.137C168.687 177.344 168.622 177.521 168.483 177.668C168.344 177.816 168.171 177.895 167.965 177.906ZM179.996 180.059L179.63 173.068L183.994 172.84L184.035 173.619L180.51 173.803L180.637 176.24L183.653 176.082L183.693 176.831L180.677 176.989L180.835 180.015L179.996 180.059ZM186.773 179.704L186.733 178.945L188.541 178.85L188.266 173.607L186.576 174.026L186.542 173.387L188.494 172.604L189.053 172.575L189.38 178.806L191.287 178.706L191.327 179.465L186.773 179.704ZM196.058 179.237C195.851 179.248 195.671 179.187 195.517 179.055C195.364 178.923 195.281 178.754 195.27 178.547C195.26 178.348 195.324 178.174 195.463 178.027C195.603 177.879 195.775 177.8 195.982 177.789C196.188 177.778 196.368 177.839 196.522 177.971C196.676 178.103 196.758 178.269 196.768 178.469C196.779 178.675 196.715 178.852 196.576 179C196.437 179.147 196.264 179.226 196.058 179.237ZM203.049 178.971C202.583 178.995 202.169 178.93 201.807 178.776C201.452 178.614 201.166 178.385 200.95 178.09C200.735 177.794 200.616 177.449 200.596 177.057C200.573 176.617 200.67 176.238 200.887 175.92C201.104 175.601 201.362 175.374 201.662 175.238L201.659 175.188C201.359 175.064 201.112 174.877 200.919 174.626C200.732 174.369 200.629 174.064 200.611 173.711C200.593 173.372 200.663 173.058 200.822 172.769C200.986 172.473 201.228 172.234 201.545 172.05C201.863 171.867 202.238 171.763 202.67 171.741C203.097 171.718 203.474 171.782 203.802 171.932C204.137 172.081 204.402 172.294 204.597 172.571C204.798 172.841 204.907 173.146 204.925 173.485C204.943 173.838 204.87 174.152 204.704 174.428C204.544 174.697 204.322 174.909 204.036 175.064L204.039 175.114C204.351 175.218 204.632 175.417 204.881 175.711C205.13 176.005 205.266 176.371 205.289 176.811C205.31 177.203 205.228 177.558 205.045 177.875C204.861 178.192 204.598 178.449 204.254 178.647C203.917 178.839 203.515 178.946 203.049 178.971ZM202.832 174.817C203.244 174.795 203.562 174.672 203.784 174.446C204.012 174.214 204.117 173.925 204.099 173.579C204.081 173.239 203.946 172.969 203.696 172.769C203.451 172.561 203.122 172.468 202.71 172.49C202.297 172.511 201.976 172.638 201.748 172.871C201.526 173.096 201.424 173.378 201.442 173.718C201.46 174.064 201.592 174.341 201.836 174.548C202.087 174.749 202.419 174.838 202.832 174.817ZM203.01 178.212C203.456 178.189 203.809 178.057 204.07 177.816C204.338 177.568 204.46 177.225 204.437 176.785C204.414 176.353 204.257 176.03 203.966 175.819C203.68 175.6 203.315 175.502 202.869 175.526C202.423 175.549 202.066 175.685 201.799 175.932C201.538 176.173 201.418 176.51 201.441 176.942C201.464 177.382 201.618 177.711 201.903 177.929C202.195 178.141 202.564 178.235 203.01 178.212Z" fill="#F8A20D"/>
<path d="M316.985 172.88L316.946 172.151L318.534 172.068L318.244 166.535L316.656 166.618L316.618 165.889L320.633 165.679L320.671 166.408L319.083 166.491L319.373 172.024L320.961 171.94L320.999 172.669L316.985 172.88ZM326.055 172.525C325.562 172.551 325.128 172.48 324.752 172.313C324.382 172.145 324.089 171.9 323.872 171.578C323.661 171.255 323.541 170.871 323.511 170.425L324.39 170.379C324.418 170.778 324.569 171.117 324.844 171.397C325.125 171.669 325.515 171.792 326.015 171.766C326.474 171.742 326.821 171.613 327.056 171.381C327.297 171.141 327.41 170.865 327.393 170.552C327.38 170.292 327.308 170.079 327.179 169.912C327.05 169.739 326.846 169.593 326.566 169.474C326.292 169.348 325.925 169.224 325.465 169.101C324.815 168.941 324.336 168.703 324.025 168.385C323.715 168.068 323.547 167.663 323.521 167.17C323.503 166.837 323.574 166.533 323.733 166.258C323.893 165.982 324.131 165.759 324.449 165.589C324.768 165.419 325.16 165.322 325.626 165.297C326.065 165.274 326.452 165.337 326.787 165.487C327.128 165.629 327.397 165.842 327.592 166.125C327.794 166.409 327.904 166.74 327.924 167.119L327.045 167.166C327.036 166.979 326.976 166.799 326.867 166.624C326.758 166.45 326.6 166.308 326.394 166.198C326.188 166.089 325.932 166.042 325.626 166.058C325.259 166.077 324.958 166.183 324.721 166.376C324.484 166.562 324.373 166.808 324.389 167.114C324.401 167.347 324.465 167.541 324.58 167.695C324.701 167.849 324.892 167.986 325.152 168.106C325.412 168.219 325.762 168.338 326.202 168.461C326.615 168.573 326.97 168.712 327.265 168.876C327.567 169.034 327.802 169.239 327.968 169.49C328.142 169.742 328.239 170.06 328.259 170.447C328.279 170.826 328.2 171.167 328.022 171.47C327.844 171.773 327.587 172.02 327.25 172.212C326.912 172.396 326.514 172.501 326.055 172.525ZM332.971 172.162C332.405 172.192 331.911 172.068 331.49 171.789C331.068 171.511 330.733 171.108 330.485 170.58C330.243 170.045 330.103 169.415 330.065 168.69C330.027 167.964 330.101 167.326 330.286 166.775C330.477 166.218 330.767 165.779 331.158 165.458C331.548 165.137 332.026 164.962 332.592 164.932C333.158 164.902 333.652 165.027 334.074 165.305C334.496 165.583 334.827 165.99 335.069 166.525C335.317 167.052 335.46 167.679 335.498 168.405C335.536 169.131 335.459 169.772 335.268 170.329C335.084 170.88 334.796 171.316 334.406 171.636C334.015 171.957 333.537 172.133 332.971 172.162ZM332.93 171.373C333.482 171.344 333.916 171.075 334.229 170.564C334.55 170.053 334.686 169.349 334.639 168.45C334.592 167.551 334.383 166.864 334.01 166.39C333.645 165.915 333.186 165.692 332.634 165.721C332.074 165.75 331.638 166.02 331.324 166.531C331.01 167.041 330.877 167.746 330.924 168.645C330.971 169.543 331.178 170.23 331.543 170.705C331.908 171.18 332.371 171.403 332.93 171.373ZM347.797 171.265L347.712 169.647L344.367 169.823L344.333 169.174L347.271 164.283L348.269 164.231L348.511 168.844L349.51 168.792L349.549 169.551L348.551 169.603L348.636 171.221L347.797 171.265ZM345.265 169.014L347.712 168.886L347.522 165.251L345.265 169.014ZM353.931 171.064C353.405 171.091 352.931 170.969 352.51 170.698C352.095 170.426 351.76 170.026 351.505 169.499C351.257 168.971 351.114 168.334 351.075 167.588C351.036 166.843 351.112 166.195 351.303 165.644C351.502 165.093 351.793 164.66 352.177 164.346C352.567 164.032 353.026 163.861 353.552 163.834C354.084 163.806 354.558 163.928 354.973 164.2C355.388 164.472 355.719 164.872 355.967 165.399C356.222 165.927 356.368 166.563 356.408 167.309C356.447 168.055 356.367 168.703 356.169 169.254C355.978 169.805 355.69 170.237 355.306 170.551C354.922 170.865 354.463 171.036 353.931 171.064ZM351.934 167.543C351.957 167.996 352.025 168.403 352.138 168.764C352.257 169.119 352.409 169.415 352.595 169.652L354.281 164.747C354.068 164.644 353.839 164.6 353.593 164.613C353.24 164.631 352.933 164.764 352.672 165.011C352.411 165.252 352.215 165.589 352.084 166.024C351.953 166.451 351.903 166.958 351.934 167.543ZM353.89 170.295C354.243 170.276 354.55 170.147 354.811 169.906C355.072 169.659 355.268 169.318 355.399 168.884C355.529 168.45 355.579 167.94 355.549 167.354C355.525 166.901 355.454 166.498 355.335 166.144C355.223 165.782 355.074 165.483 354.888 165.246L353.192 170.161C353.411 170.263 353.644 170.308 353.89 170.295ZM360.917 170.698C360.391 170.725 359.918 170.603 359.496 170.332C359.081 170.06 358.747 169.66 358.492 169.132C358.244 168.605 358.1 167.968 358.061 167.222C358.022 166.477 358.098 165.828 358.29 165.278C358.488 164.727 358.779 164.294 359.163 163.98C359.554 163.666 360.012 163.495 360.538 163.468C361.071 163.44 361.545 163.562 361.959 163.834C362.374 164.106 362.706 164.506 362.954 165.033C363.208 165.561 363.355 166.197 363.394 166.943C363.433 167.689 363.354 168.337 363.156 168.888C362.964 169.439 362.676 169.871 362.292 170.185C361.908 170.499 361.45 170.67 360.917 170.698ZM358.92 167.177C358.944 167.63 359.012 168.037 359.124 168.398C359.243 168.753 359.395 169.048 359.581 169.286L361.267 164.381C361.055 164.278 360.825 164.234 360.579 164.246C360.226 164.265 359.919 164.398 359.659 164.645C359.398 164.886 359.202 165.223 359.071 165.657C358.94 166.085 358.89 166.591 358.92 167.177ZM360.877 169.929C361.23 169.91 361.537 169.781 361.798 169.54C362.059 169.293 362.254 168.952 362.385 168.518C362.516 168.084 362.566 167.574 362.535 166.988C362.512 166.535 362.44 166.132 362.322 165.777C362.209 165.416 362.06 165.117 361.874 164.88L360.179 169.795C360.398 169.897 360.631 169.942 360.877 169.929Z" fill="#F8A20D"/>
<g clip-path="url(#clip1_503_1176)">
<g clip-path="url(#clip2_503_1176)">
<path d="M256.07 443.436C271.512 442.627 283.374 429.453 282.565 414.01C281.756 398.568 268.581 386.706 253.139 387.515C237.697 388.324 225.834 401.499 226.644 416.941C227.453 432.383 240.627 444.246 256.07 443.436Z" stroke="#F8A20D" stroke-width="0.999965" stroke-dasharray="2 4"/>
<path d="M255.337 429.457C263.059 429.052 268.99 422.465 268.586 414.743C268.181 407.022 261.593 401.091 253.872 401.495C246.151 401.9 240.219 408.487 240.624 416.209C241.029 423.93 247.616 429.862 255.337 429.457Z" stroke="#F8A20D" stroke-width="0.999965"/>
<path d="M254.735 417.972C256.114 417.9 257.173 416.724 257.101 415.345C257.029 413.966 255.852 412.907 254.473 412.979C253.095 413.051 252.035 414.228 252.108 415.606C252.18 416.985 253.356 418.044 254.735 417.972Z" fill="#8D1514"/>
<path d="M252.93 383.521L253.453 393.507" stroke="#F8A20D" stroke-width="0.999965"/>
<path d="M255.756 437.445L256.279 447.431" stroke="#F8A20D" stroke-width="0.999965"/>
<path d="M222.649 417.15L232.635 416.627" stroke="#F8A20D" stroke-width="0.999965"/>
<path d="M276.573 414.324L286.56 413.801" stroke="#F8A20D" stroke-width="0.999965"/>
</g>
</g>
<path d="M135.805 479.785L346.935 468.72L349.133 510.66L138.003 521.725L135.805 479.785Z" fill="#090506" fill-opacity="0.55"/>
<path d="M148.528 496.537L151.538 487.867L152.417 487.821L149.396 496.491L148.528 496.537ZM155.314 496.181L158.325 487.511L159.204 487.465L156.183 496.135L155.314 496.181ZM170.944 494.581C170.452 494.606 170.005 494.486 169.604 494.22C169.202 493.948 168.877 493.547 168.629 493.02C168.388 492.492 168.248 491.851 168.208 491.099C168.169 490.353 168.245 489.705 168.437 489.154C168.628 488.604 168.916 488.171 169.3 487.857C169.691 487.543 170.163 487.372 170.715 487.343C171.374 487.308 171.92 487.473 172.353 487.838C172.793 488.202 173.07 488.708 173.184 489.356L172.255 489.405C172.168 489.009 171.994 488.694 171.735 488.461C171.482 488.22 171.156 488.111 170.756 488.132C170.184 488.162 169.748 488.435 169.448 488.951C169.148 489.468 169.021 490.169 169.067 491.054C169.114 491.953 169.314 492.64 169.666 493.116C170.018 493.591 170.454 493.815 170.973 493.788C171.346 493.769 171.646 493.643 171.874 493.41C172.102 493.171 172.267 492.876 172.369 492.523C172.477 492.164 172.527 491.797 172.521 491.424L170.963 491.505L170.926 490.786L173.342 490.66L173.534 494.325L172.765 494.365L172.64 493.31L172.6 493.312C172.479 493.679 172.288 493.976 172.026 494.204C171.771 494.431 171.41 494.556 170.944 494.581ZM175.658 494.213L175.291 487.223L179.655 486.994L179.695 487.753L176.17 487.938L176.292 490.265L179.517 490.096L179.557 490.855L176.332 491.024L176.457 493.411L179.982 493.226L180.022 493.985L175.658 494.213ZM182.085 493.877L181.719 486.886L182.617 486.839L184.389 490.081L185.813 486.672L186.712 486.625L187.078 493.615L186.259 493.658L185.978 488.285L184.768 491.183L184.128 491.216L182.623 488.471L182.904 493.834L182.085 493.877ZM189.361 493.495L189.323 492.766L190.911 492.683L190.621 487.151L189.033 487.234L188.995 486.505L193.009 486.295L193.047 487.024L191.459 487.107L191.749 492.639L193.337 492.556L193.375 493.285L189.361 493.495ZM195.728 493.162L195.362 486.171L196.221 486.126L199.686 491.482L199.396 485.96L200.225 485.916L200.592 492.907L199.723 492.952L196.258 487.596L196.547 493.119L195.728 493.162ZM202.935 492.784L202.896 492.055L204.484 491.972L204.194 486.439L202.606 486.523L202.568 485.794L206.583 485.583L206.621 486.312L205.033 486.395L205.323 491.928L206.911 491.845L206.949 492.574L202.935 492.784ZM211.73 492.343C211.523 492.354 211.343 492.293 211.189 492.161C211.036 492.029 210.953 491.86 210.942 491.653C210.932 491.454 210.996 491.28 211.135 491.132C211.275 490.985 211.447 490.906 211.654 490.895C211.86 490.884 212.04 490.945 212.194 491.077C212.348 491.209 212.43 491.375 212.44 491.575C212.451 491.781 212.387 491.958 212.248 492.106C212.109 492.253 211.936 492.332 211.73 492.343ZM211.523 488.398C211.316 488.409 211.136 488.349 210.983 488.216C210.829 488.084 210.747 487.915 210.736 487.709C210.725 487.509 210.79 487.335 210.929 487.188C211.068 487.04 211.241 486.961 211.447 486.95C211.653 486.94 211.833 487 211.987 487.132C212.141 487.265 212.223 487.43 212.234 487.63C212.244 487.837 212.18 488.014 212.041 488.161C211.902 488.309 211.729 488.388 211.523 488.398Z" fill="#F5EEDE"/>
<path d="M223.166 493.927L222.791 486.777L223.71 486.729L223.83 487.483L223.89 487.48C224.01 487.227 224.199 487.01 224.456 486.83C224.72 486.642 225.039 486.539 225.411 486.519C225.798 486.499 226.156 486.581 226.486 486.763C226.815 486.94 227.084 487.216 227.29 487.593C227.503 487.962 227.625 488.433 227.655 489.005C227.684 489.571 227.609 490.053 227.43 490.449C227.257 490.845 227.009 491.152 226.687 491.369C226.364 491.58 225.997 491.696 225.584 491.717C225.218 491.737 224.908 491.679 224.654 491.546C224.4 491.412 224.208 491.256 224.078 491.075L224.225 493.872L223.166 493.927ZM225.351 490.718C225.724 490.699 226.027 490.549 226.259 490.27C226.498 489.991 226.604 489.585 226.576 489.052C226.548 488.519 226.4 488.13 226.134 487.883C225.874 487.637 225.558 487.523 225.185 487.543C224.805 487.563 224.496 487.712 224.257 487.992C224.024 488.264 223.922 488.667 223.95 489.2C223.977 489.726 224.121 490.115 224.382 490.369C224.648 490.622 224.972 490.738 225.351 490.718ZM232.151 491.373C231.678 491.398 231.25 491.314 230.866 491.12C230.482 490.927 230.173 490.642 229.94 490.268C229.706 489.886 229.576 489.432 229.548 488.906C229.521 488.38 229.603 487.919 229.796 487.521C229.988 487.117 230.266 486.799 230.627 486.566C230.989 486.334 231.409 486.205 231.889 486.18C232.368 486.155 232.796 486.239 233.174 486.433C233.558 486.627 233.863 486.914 234.09 487.296C234.323 487.671 234.454 488.122 234.481 488.648C234.509 489.174 234.427 489.639 234.234 490.042C234.041 490.44 233.764 490.755 233.402 490.987C233.047 491.22 232.63 491.348 232.151 491.373ZM232.098 490.365C232.351 490.351 232.581 490.283 232.788 490.158C232.995 490.034 233.156 489.852 233.27 489.612C233.391 489.366 233.442 489.063 233.423 488.703C233.404 488.337 233.321 488.041 233.176 487.815C233.037 487.588 232.858 487.424 232.64 487.322C232.427 487.22 232.195 487.175 231.942 487.189C231.689 487.202 231.459 487.271 231.251 487.395C231.044 487.519 230.88 487.701 230.759 487.941C230.645 488.181 230.598 488.484 230.617 488.85C230.645 489.396 230.803 489.792 231.089 490.037C231.382 490.275 231.719 490.385 232.098 490.365ZM230.45 485.865L230.406 485.016L231.772 484.143L233.222 484.868L233.266 485.717L231.846 484.991L231.786 484.994L230.45 485.865ZM236.704 491.015L236.656 490.096L237.865 490.032L237.719 487.246C237.707 487.027 237.595 486.922 237.382 486.933L236.593 486.975L236.545 486.056L237.733 485.994C238.006 485.979 238.233 486.048 238.415 486.198C238.596 486.342 238.694 486.554 238.708 486.834L238.715 486.954L238.765 486.951C238.818 486.574 238.96 486.287 239.19 486.088C239.426 485.882 239.777 485.767 240.243 485.742L241.012 485.702L241.071 486.82L239.992 486.877C239.6 486.897 239.304 487.05 239.105 487.334C238.906 487.618 238.817 487.95 238.837 488.329L238.923 489.977L240.461 489.896L240.509 490.815L236.704 491.015ZM243.841 487.586L243.794 486.688L247.229 486.508L247.276 487.406L243.841 487.586ZM252.242 490.32C251.829 490.342 251.454 490.265 251.118 490.089C250.781 489.906 250.506 489.627 250.293 489.251C250.086 488.875 249.968 488.403 249.938 487.838C249.909 487.272 249.98 486.791 250.153 486.394C250.326 485.998 250.571 485.695 250.887 485.485C251.209 485.268 251.573 485.148 251.979 485.127C252.359 485.107 252.676 485.164 252.93 485.298C253.183 485.424 253.376 485.595 253.507 485.808L253.356 482.932L254.415 482.876L254.792 490.067L253.883 490.114L253.755 489.39L253.695 489.393C253.575 489.66 253.397 489.876 253.158 490.042C252.927 490.208 252.621 490.301 252.242 490.32ZM252.408 489.3C252.788 489.28 253.094 489.131 253.326 488.852C253.565 488.572 253.671 488.169 253.643 487.643C253.615 487.111 253.468 486.721 253.202 486.475C252.941 486.222 252.621 486.105 252.242 486.125C251.863 486.145 251.553 486.294 251.314 486.574C251.082 486.853 250.98 487.259 251.008 487.792C251.035 488.317 251.179 488.707 251.439 488.961C251.706 489.207 252.029 489.32 252.408 489.3ZM259.298 489.951C258.825 489.975 258.397 489.891 258.013 489.698C257.629 489.504 257.32 489.22 257.087 488.845C256.853 488.463 256.723 488.009 256.695 487.483C256.668 486.957 256.75 486.496 256.943 486.099C257.136 485.695 257.413 485.376 257.774 485.144C258.136 484.911 258.556 484.782 259.036 484.757C259.515 484.732 259.943 484.816 260.321 485.01C260.705 485.204 261.01 485.492 261.237 485.874C261.471 486.248 261.601 486.699 261.629 487.225C261.656 487.751 261.574 488.216 261.381 488.62C261.188 489.017 260.911 489.332 260.549 489.565C260.194 489.797 259.777 489.925 259.298 489.951ZM259.245 488.942C259.498 488.929 259.728 488.86 259.935 488.736C260.142 488.611 260.303 488.429 260.417 488.19C260.538 487.943 260.589 487.64 260.57 487.28C260.551 486.914 260.469 486.618 260.323 486.392C260.184 486.166 260.006 486.001 259.787 485.899C259.574 485.797 259.342 485.753 259.089 485.766C258.836 485.779 258.606 485.848 258.399 485.972C258.191 486.097 258.027 486.279 257.906 486.519C257.792 486.758 257.745 487.061 257.764 487.427C257.792 487.973 257.95 488.369 258.237 488.614C258.529 488.853 258.866 488.962 259.245 488.942ZM264.201 486.519L264.154 485.621L267.589 485.44L267.637 486.339L264.201 486.519ZM272.911 489.237C272.259 489.271 271.732 489.145 271.33 488.859C270.927 488.573 270.686 488.179 270.607 487.676L271.695 487.619C271.747 487.85 271.874 488.033 272.074 488.169C272.282 488.305 272.549 488.365 272.875 488.348C273.188 488.331 273.424 488.256 273.584 488.12C273.75 487.978 273.829 487.821 273.82 487.647C273.806 487.394 273.694 487.227 273.483 487.144C273.278 487.062 272.978 487.007 272.583 486.981C272.241 486.959 271.928 486.899 271.642 486.8C271.363 486.695 271.138 486.546 270.968 486.355C270.797 486.157 270.704 485.905 270.688 485.599C270.665 485.166 270.817 484.807 271.142 484.523C271.468 484.239 271.934 484.081 272.539 484.05C273.145 484.018 273.622 484.13 273.969 484.385C274.316 484.641 274.529 485.003 274.607 485.473L273.588 485.527C273.551 485.328 273.44 485.177 273.254 485.074C273.068 484.963 272.842 484.915 272.576 484.929C272.303 484.943 272.089 485.008 271.935 485.123C271.78 485.231 271.707 485.368 271.716 485.535C271.735 485.894 272.133 486.094 272.909 486.133C273.277 486.154 273.607 486.207 273.899 486.291C274.19 486.37 274.424 486.508 274.601 486.705C274.778 486.896 274.876 487.175 274.895 487.541C274.918 487.84 274.845 488.114 274.678 488.363C274.518 488.612 274.285 488.815 273.979 488.971C273.68 489.127 273.324 489.216 272.911 489.237ZM279.658 488.884C279.186 488.908 278.757 488.824 278.373 488.63C277.989 488.437 277.681 488.153 277.447 487.778C277.214 487.396 277.083 486.942 277.056 486.416C277.028 485.89 277.111 485.429 277.303 485.032C277.496 484.628 277.773 484.309 278.135 484.077C278.496 483.844 278.917 483.715 279.396 483.69C279.876 483.665 280.304 483.749 280.681 483.943C281.065 484.137 281.371 484.425 281.598 484.806C281.831 485.181 281.961 485.632 281.989 486.158C282.016 486.684 281.934 487.149 281.742 487.553C281.549 487.95 281.271 488.265 280.91 488.498C280.555 488.73 280.138 488.858 279.658 488.884ZM279.605 487.875C279.858 487.862 280.088 487.793 280.296 487.669C280.503 487.544 280.663 487.362 280.778 487.123C280.898 486.876 280.949 486.573 280.93 486.213C280.911 485.847 280.829 485.551 280.683 485.325C280.545 485.099 280.366 484.934 280.147 484.832C279.935 484.73 279.702 484.686 279.449 484.699C279.196 484.712 278.966 484.781 278.759 484.905C278.552 485.03 278.388 485.212 278.267 485.452C278.153 485.691 278.105 485.994 278.124 486.36C278.153 486.906 278.31 487.302 278.597 487.547C278.89 487.786 279.226 487.895 279.605 487.875ZM284.122 488.529L284.074 487.611L285.732 487.524L285.468 482.501C285.457 482.281 285.345 482.177 285.131 482.188L283.933 482.251L283.885 481.332L285.273 481.259C285.659 481.239 285.958 481.327 286.168 481.523C286.385 481.712 286.503 481.999 286.524 482.385L286.79 487.468L288.458 487.381L288.506 488.3L284.122 488.529ZM299.579 487.84C298.98 487.871 298.514 487.712 298.182 487.362C297.857 487.005 297.675 486.474 297.638 485.768L297.486 482.862L298.544 482.807L298.69 485.583C298.711 485.989 298.815 486.304 299 486.528C299.191 486.745 299.47 486.844 299.837 486.825C300.203 486.806 300.502 486.666 300.736 486.407C300.969 486.148 301.074 485.785 301.049 485.319L300.911 482.683L301.97 482.627L302.229 487.58L301.311 487.629L301.182 486.894L301.132 486.897C301.011 487.144 300.816 487.358 300.545 487.539C300.274 487.72 299.952 487.82 299.579 487.84ZM304.572 487.458L304.524 486.539L305.732 486.476L305.586 483.689C305.575 483.47 305.463 483.366 305.25 483.377L304.461 483.418L304.412 482.499L305.601 482.437C305.874 482.423 306.101 482.491 306.283 482.642C306.464 482.786 306.562 482.997 306.576 483.277L306.582 483.397L306.632 483.394C306.686 483.018 306.828 482.73 307.058 482.531C307.294 482.325 307.645 482.21 308.111 482.185L308.88 482.145L308.939 483.263L307.86 483.32C307.467 483.341 307.172 483.493 306.973 483.777C306.774 484.061 306.685 484.393 306.705 484.772L306.791 486.42L308.329 486.34L308.377 487.258L304.572 487.458ZM313.862 487.091C313.496 487.11 313.182 487.053 312.922 486.92C312.667 486.78 312.467 486.58 312.319 486.321L312.26 486.324L312.208 487.058L311.299 487.105L310.922 479.915L311.981 479.86L312.132 482.736C312.241 482.53 312.421 482.343 312.673 482.177C312.925 482.01 313.23 481.917 313.59 481.898C314.002 481.877 314.377 481.957 314.714 482.14C315.05 482.316 315.322 482.592 315.528 482.968C315.742 483.344 315.863 483.815 315.893 484.381C315.922 484.947 315.851 485.428 315.678 485.824C315.512 486.22 315.271 486.527 314.955 486.743C314.639 486.953 314.275 487.069 313.862 487.091ZM313.589 486.094C313.969 486.074 314.275 485.928 314.508 485.655C314.747 485.376 314.852 484.973 314.825 484.447C314.797 483.914 314.649 483.522 314.383 483.269C314.122 483.015 313.802 482.898 313.423 482.918C313.043 482.938 312.734 483.088 312.495 483.367C312.262 483.64 312.16 484.043 312.188 484.575C312.215 485.101 312.359 485.491 312.62 485.744C312.887 485.997 313.21 486.114 313.589 486.094ZM319.93 486.773C319.537 486.794 319.204 486.744 318.931 486.625C318.657 486.499 318.448 486.327 318.303 486.107C318.157 485.881 318.077 485.632 318.063 485.359C318.038 484.873 318.194 484.484 318.533 484.193C318.878 483.901 319.377 483.738 320.029 483.704L321.307 483.637L321.302 483.527C321.263 482.781 320.897 482.426 320.204 482.463C319.918 482.478 319.678 482.554 319.485 482.691C319.299 482.821 319.179 483.024 319.127 483.3L318.068 483.356C318.094 482.834 318.296 482.413 318.673 482.092C319.056 481.765 319.551 481.586 320.157 481.554C320.889 481.516 321.431 481.667 321.783 482.01C322.135 482.352 322.327 482.839 322.36 483.471L322.52 486.517L321.621 486.564L321.493 485.84L321.423 485.844C321.289 486.084 321.116 486.294 320.905 486.472C320.694 486.65 320.369 486.75 319.93 486.773ZM320.083 485.874C320.516 485.851 320.832 485.704 321.031 485.434C321.237 485.156 321.339 484.813 321.338 484.406L320.179 484.467C319.8 484.487 319.533 484.564 319.38 484.699C319.233 484.827 319.166 485.001 319.177 485.22C319.189 485.44 319.274 485.609 319.434 485.728C319.6 485.839 319.816 485.888 320.083 485.874ZM324.943 486.39L324.683 481.437L325.602 481.389L325.73 482.123L325.78 482.12C325.901 481.874 326.097 481.66 326.367 481.479C326.638 481.298 326.957 481.198 327.323 481.178C327.929 481.147 328.395 481.306 328.72 481.656C329.045 482.006 329.227 482.537 329.264 483.25L329.416 486.156L328.358 486.211L328.212 483.435C328.191 483.022 328.087 482.707 327.902 482.49C327.718 482.273 327.439 482.174 327.066 482.193C326.7 482.212 326.4 482.352 326.166 482.611C325.94 482.87 325.839 483.232 325.863 483.698L326.001 486.335L324.943 486.39ZM333.953 486.038C333.48 486.063 333.052 485.979 332.668 485.785C332.284 485.592 331.975 485.307 331.742 484.932C331.508 484.551 331.377 484.097 331.35 483.571C331.322 483.045 331.405 482.583 331.598 482.186C331.79 481.782 332.067 481.464 332.429 481.231C332.791 480.999 333.211 480.87 333.69 480.845C334.17 480.82 334.598 480.904 334.975 481.098C335.359 481.291 335.665 481.579 335.892 481.961C336.125 482.336 336.256 482.786 336.283 483.312C336.311 483.838 336.228 484.303 336.036 484.707C335.843 485.105 335.566 485.42 335.204 485.652C334.849 485.884 334.432 486.013 333.953 486.038ZM333.9 485.03C334.153 485.016 334.383 484.947 334.59 484.823C334.797 484.699 334.958 484.517 335.072 484.277C335.193 484.03 335.243 483.727 335.225 483.368C335.205 483.002 335.123 482.706 334.978 482.48C334.839 482.253 334.66 482.089 334.441 481.987C334.229 481.885 333.996 481.84 333.743 481.853C333.49 481.867 333.26 481.935 333.053 482.06C332.846 482.184 332.682 482.366 332.561 482.606C332.447 482.846 332.399 483.149 332.418 483.515C332.447 484.061 332.605 484.456 332.891 484.702C333.184 484.94 333.52 485.049 333.9 485.03Z" fill="#F8A20D"/>
<path d="M148.811 510.642L148.552 505.689L149.241 505.653L149.361 506.227L149.411 506.224C149.487 506.02 149.608 505.847 149.774 505.705C149.947 505.562 150.16 505.484 150.413 505.471C150.666 505.458 150.882 505.51 151.062 505.627C151.248 505.738 151.387 505.901 151.478 506.116L151.518 506.114C151.594 505.91 151.725 505.736 151.911 505.593C152.097 505.449 152.327 505.371 152.6 505.356C152.979 505.336 153.269 505.451 153.469 505.701C153.675 505.944 153.79 506.279 153.812 506.705L154.004 510.37L153.185 510.413L153 506.877C152.987 506.638 152.927 506.451 152.82 506.316C152.72 506.181 152.563 506.119 152.35 506.13C152.13 506.142 151.955 506.235 151.824 506.408C151.693 506.582 151.635 506.822 151.651 507.128L151.827 510.484L150.998 510.527L150.813 506.992C150.8 506.752 150.744 506.565 150.643 506.43C150.543 506.295 150.386 506.233 150.173 506.245C149.953 506.256 149.774 506.349 149.637 506.523C149.506 506.697 149.448 506.937 149.464 507.243L149.64 510.598L148.811 510.642ZM158.231 510.268C157.765 510.293 157.346 510.208 156.976 510.014C156.605 509.819 156.306 509.535 156.08 509.159C155.853 508.777 155.725 508.323 155.698 507.798C155.67 507.272 155.75 506.81 155.936 506.413C156.121 506.01 156.389 505.692 156.737 505.46C157.085 505.228 157.492 505.1 157.958 505.075C158.424 505.051 158.843 505.136 159.213 505.33C159.584 505.524 159.883 505.812 160.11 506.194C160.337 506.57 160.464 507.02 160.491 507.546C160.519 508.072 160.44 508.537 160.254 508.941C160.068 509.338 159.8 509.652 159.452 509.884C159.104 510.116 158.697 510.244 158.231 510.268ZM158.189 509.469C158.475 509.454 158.731 509.378 158.958 509.239C159.184 509.1 159.357 508.894 159.476 508.621C159.602 508.347 159.654 508.004 159.632 507.591C159.611 507.179 159.523 506.843 159.369 506.584C159.222 506.324 159.029 506.138 158.789 506.023C158.55 505.909 158.287 505.859 158 505.874C157.721 505.889 157.468 505.966 157.241 506.104C157.015 506.243 156.839 506.449 156.713 506.723C156.587 506.997 156.535 507.34 156.557 507.753C156.589 508.372 156.763 508.82 157.078 509.097C157.392 509.368 157.763 509.492 158.189 509.469ZM165.017 509.913C164.551 509.937 164.133 509.852 163.762 509.658C163.392 509.464 163.093 509.179 162.866 508.804C162.639 508.422 162.512 507.968 162.485 507.442C162.457 506.916 162.536 506.454 162.722 506.057C162.908 505.654 163.175 505.336 163.524 505.104C163.872 504.872 164.279 504.744 164.745 504.72C165.211 504.695 165.63 504.78 166 504.974C166.371 505.169 166.67 505.457 166.897 505.839C167.123 506.214 167.25 506.665 167.278 507.191C167.306 507.717 167.226 508.181 167.041 508.585C166.855 508.982 166.587 509.296 166.239 509.528C165.891 509.76 165.483 509.888 165.017 509.913ZM164.976 509.114C165.262 509.099 165.518 509.022 165.744 508.883C165.971 508.744 166.144 508.538 166.263 508.265C166.389 507.992 166.441 507.648 166.419 507.236C166.398 506.823 166.31 506.487 166.156 506.228C166.009 505.969 165.816 505.782 165.576 505.668C165.336 505.553 165.073 505.504 164.787 505.519C164.507 505.533 164.254 505.61 164.028 505.749C163.802 505.887 163.626 506.094 163.5 506.367C163.374 506.641 163.322 506.984 163.343 507.397C163.376 508.016 163.55 508.464 163.864 508.741C164.179 509.012 164.549 509.136 164.976 509.114ZM171.634 509.566C171.215 509.588 170.834 509.508 170.49 509.325C170.154 509.143 169.882 508.863 169.675 508.487C169.468 508.104 169.35 507.633 169.321 507.074C169.292 506.521 169.36 506.047 169.527 505.651C169.693 505.255 169.934 504.949 170.249 504.732C170.572 504.515 170.943 504.395 171.362 504.373C171.755 504.352 172.082 504.412 172.343 504.552C172.611 504.691 172.814 504.881 172.954 505.121L172.799 502.175L173.638 502.131L174.015 509.321L173.326 509.357L173.196 508.593L173.136 508.596C173.017 508.876 172.832 509.103 172.581 509.276C172.329 509.449 172.014 509.546 171.634 509.566ZM171.702 508.761C172.122 508.739 172.46 508.575 172.718 508.267C172.975 507.953 173.088 507.494 173.056 506.888C173.024 506.282 172.864 505.84 172.576 505.561C172.287 505.276 171.933 505.144 171.514 505.166C171.095 505.188 170.756 505.356 170.499 505.67C170.248 505.977 170.138 506.433 170.17 507.039C170.202 507.645 170.359 508.091 170.641 508.376C170.929 508.655 171.283 508.783 171.702 508.761ZM185.226 505.95C185.02 505.96 184.839 505.9 184.686 505.768C184.532 505.635 184.45 505.466 184.439 505.26C184.428 505.06 184.493 504.887 184.632 504.739C184.771 504.592 184.944 504.512 185.15 504.502C185.356 504.491 185.537 504.551 185.69 504.684C185.844 504.816 185.926 504.982 185.937 505.181C185.948 505.388 185.883 505.565 185.744 505.712C185.605 505.86 185.432 505.939 185.226 505.95Z" fill="#F5EEDE"/>
<path d="M196.761 508.13L196.501 503.177L197.42 503.129L197.548 503.863L197.598 503.86C197.719 503.614 197.915 503.4 198.185 503.219C198.456 503.038 198.775 502.938 199.141 502.918C199.747 502.887 200.213 503.046 200.538 503.396C200.863 503.746 201.045 504.277 201.082 504.99L201.234 507.896L200.176 507.951L200.03 505.175C200.009 504.762 199.905 504.447 199.721 504.23C199.536 504.013 199.257 503.914 198.884 503.933C198.518 503.952 198.218 504.092 197.984 504.351C197.758 504.61 197.657 504.972 197.681 505.438L197.819 508.075L196.761 508.13ZM205.771 507.778C205.298 507.803 204.87 507.719 204.486 507.525C204.102 507.332 203.793 507.047 203.56 506.672C203.326 506.291 203.195 505.837 203.168 505.311C203.14 504.785 203.223 504.323 203.416 503.926C203.608 503.522 203.885 503.204 204.247 502.971C204.609 502.739 205.029 502.61 205.508 502.585C205.988 502.56 206.416 502.644 206.793 502.838C207.177 503.031 207.483 503.319 207.71 503.701C207.943 504.076 208.074 504.526 208.101 505.052C208.129 505.578 208.046 506.043 207.854 506.447C207.661 506.845 207.384 507.159 207.022 507.392C206.667 507.624 206.25 507.753 205.771 507.778ZM205.718 506.769C205.971 506.756 206.201 506.687 206.408 506.563C206.615 506.439 206.776 506.257 206.89 506.017C207.011 505.77 207.061 505.467 207.043 505.108C207.023 504.742 206.941 504.446 206.796 504.22C206.657 503.993 206.478 503.829 206.259 503.727C206.047 503.625 205.814 503.58 205.561 503.593C205.308 503.607 205.078 503.675 204.871 503.8C204.664 503.924 204.5 504.106 204.379 504.346C204.265 504.586 204.217 504.889 204.236 505.255C204.265 505.801 204.423 506.196 204.709 506.442C205.002 506.68 205.338 506.789 205.718 506.769ZM212.597 507.42C211.945 507.455 211.418 507.329 211.015 507.043C210.613 506.757 210.372 506.362 210.292 505.859L211.381 505.802C211.433 506.033 211.56 506.216 211.76 506.353C211.968 506.489 212.235 506.548 212.561 506.531C212.874 506.515 213.11 506.439 213.27 506.304C213.436 506.161 213.514 506.004 213.505 505.831C213.492 505.578 213.38 505.41 213.169 505.328C212.964 505.245 212.664 505.19 212.269 505.164C211.927 505.142 211.614 505.082 211.328 504.983C211.049 504.878 210.824 504.729 210.654 504.538C210.483 504.34 210.39 504.088 210.374 503.782C210.351 503.349 210.503 502.991 210.828 502.706C211.154 502.422 211.619 502.264 212.225 502.233C212.831 502.201 213.308 502.313 213.655 502.568C214.002 502.824 214.215 503.187 214.293 503.656L213.274 503.71C213.237 503.512 213.126 503.36 212.94 503.257C212.754 503.146 212.528 503.098 212.261 503.112C211.988 503.126 211.775 503.191 211.621 503.306C211.466 503.414 211.393 503.551 211.402 503.718C211.421 504.077 211.818 504.277 212.595 504.316C212.963 504.337 213.293 504.39 213.585 504.475C213.876 504.553 214.11 504.691 214.287 504.888C214.464 505.079 214.562 505.358 214.581 505.724C214.604 506.023 214.531 506.298 214.364 506.547C214.203 506.795 213.97 506.998 213.665 507.154C213.366 507.31 213.01 507.399 212.597 507.42ZM219.877 506.919C219.391 506.944 218.999 506.848 218.7 506.63C218.402 506.405 218.236 505.99 218.205 505.384L218.077 502.947L216.829 503.013L216.781 502.114L217.52 502.075C217.86 502.058 218.051 501.881 218.093 501.545L218.201 500.738L219.02 500.695L219.088 501.993L221.046 501.891L221.093 502.789L219.135 502.892L219.262 505.309C219.276 505.568 219.342 505.748 219.461 505.849C219.586 505.943 219.791 505.982 220.078 505.967L221.236 505.906L221.285 506.845L219.877 506.919ZM225.682 506.735C225.289 506.755 224.956 506.706 224.682 506.587C224.409 506.461 224.199 506.288 224.054 506.069C223.909 505.843 223.829 505.593 223.815 505.32C223.79 504.834 223.946 504.446 224.285 504.154C224.63 503.862 225.129 503.699 225.781 503.665L227.059 503.598L227.054 503.488C227.014 502.743 226.649 502.388 225.956 502.424C225.67 502.439 225.43 502.515 225.237 502.652C225.051 502.782 224.931 502.985 224.879 503.262L223.82 503.317C223.846 502.795 224.048 502.374 224.425 502.054C224.808 501.727 225.303 501.547 225.909 501.516C226.641 501.477 227.183 501.629 227.535 501.971C227.887 502.313 228.079 502.8 228.112 503.433L228.272 506.479L227.373 506.526L227.245 505.802L227.175 505.805C227.041 506.046 226.868 506.255 226.657 506.433C226.446 506.611 226.121 506.712 225.682 506.735ZM225.835 505.835C226.267 505.813 226.584 505.666 226.783 505.395C226.989 505.117 227.091 504.775 227.09 504.368L225.931 504.428C225.552 504.448 225.285 504.526 225.132 504.661C224.985 504.788 224.918 504.962 224.929 505.182C224.941 505.402 225.026 505.571 225.186 505.689C225.352 505.801 225.568 505.849 225.835 505.835ZM225.306 501.287L225.259 500.388L227.377 499.146L227.429 500.134L225.306 501.287ZM230.595 506.357L230.546 505.438L232.204 505.351L231.941 500.328C231.929 500.109 231.817 500.004 231.604 500.015L230.406 500.078L230.358 499.16L231.746 499.087C232.132 499.067 232.43 499.154 232.641 499.35C232.858 499.539 232.976 499.827 232.996 500.213L233.263 505.296L234.93 505.208L234.979 506.127L230.595 506.357ZM239.514 504.458C239.207 504.474 238.922 504.439 238.657 504.352L238.423 504.665C238.348 504.769 238.33 504.867 238.368 504.958C238.413 505.043 238.505 505.081 238.645 505.074L239.953 505.005C240.532 504.975 241.004 505.074 241.37 505.302C241.742 505.522 241.941 505.882 241.968 506.382C241.984 506.695 241.919 506.982 241.772 507.243C241.633 507.511 241.394 507.73 241.056 507.902C240.724 508.073 240.279 508.173 239.72 508.202C239.014 508.239 238.438 508.136 237.991 507.892C237.551 507.655 237.318 507.273 237.29 506.747C237.281 506.561 237.315 506.385 237.393 506.221C237.478 506.063 237.591 505.917 237.73 505.783C237.544 505.659 237.424 505.478 237.372 505.241C237.325 504.996 237.386 504.756 237.554 504.52L237.964 503.938C237.634 503.621 237.456 503.22 237.43 502.734C237.413 502.408 237.474 502.104 237.613 501.823C237.758 501.535 237.973 501.301 238.257 501.119C238.548 500.937 238.903 500.835 239.323 500.813C239.595 500.798 239.851 500.825 240.088 500.893L241.955 500.795L241.992 501.494L241.126 501.589L241.13 501.679C241.284 501.931 241.369 502.214 241.385 502.527C241.402 502.853 241.338 503.16 241.193 503.448C241.055 503.736 240.843 503.971 240.559 504.152C240.275 504.334 239.926 504.436 239.514 504.458ZM239.469 503.609C239.762 503.593 239.997 503.494 240.174 503.311C240.358 503.128 240.442 502.883 240.426 502.577C240.411 502.284 240.302 502.056 240.1 501.893C239.905 501.73 239.66 501.656 239.368 501.671C239.068 501.687 238.826 501.787 238.642 501.97C238.465 502.153 238.384 502.391 238.399 502.683C238.415 502.99 238.521 503.225 238.716 503.388C238.919 503.551 239.169 503.624 239.469 503.609ZM238.285 506.615C238.299 506.881 238.435 507.071 238.695 507.184C238.961 507.297 239.288 507.343 239.674 507.323C240.086 507.301 240.409 507.214 240.641 507.062C240.874 506.91 240.983 506.707 240.97 506.454C240.959 506.241 240.863 506.076 240.684 505.958C240.504 505.848 240.208 505.803 239.795 505.825L238.627 505.886C238.385 506.099 238.27 506.342 238.285 506.615ZM246.086 499.817C245.853 499.829 245.653 499.767 245.485 499.628C245.324 499.483 245.238 499.301 245.226 499.081C245.215 498.862 245.282 498.674 245.427 498.52C245.579 498.365 245.772 498.282 246.005 498.269C246.244 498.257 246.445 498.32 246.605 498.458C246.773 498.596 246.862 498.775 246.874 498.995C246.885 499.215 246.815 499.405 246.663 499.567C246.518 499.721 246.325 499.805 246.086 499.817ZM244.398 505.634L244.35 504.715L245.908 504.633L245.762 501.847C245.75 501.627 245.638 501.523 245.425 501.534L244.326 501.592L244.278 500.673L245.566 500.606C245.979 500.584 246.284 500.665 246.48 500.848C246.683 501.024 246.795 501.319 246.817 501.732L246.966 504.578L248.524 504.496L248.572 505.415L244.398 505.634ZM253.348 505.285C252.889 505.309 252.47 505.224 252.093 505.03C251.722 504.836 251.424 504.551 251.197 504.176C250.97 503.794 250.843 503.34 250.815 502.814C250.788 502.288 250.867 501.826 251.053 501.43C251.246 501.032 251.516 500.718 251.865 500.486C252.213 500.247 252.616 500.116 253.076 500.092C253.708 500.059 254.226 500.192 254.629 500.491C255.038 500.783 255.31 501.203 255.446 501.75L254.337 501.808C254.258 501.572 254.112 501.389 253.898 501.26C253.691 501.131 253.431 501.075 253.118 501.091C252.892 501.103 252.679 501.174 252.478 501.305C252.285 501.435 252.131 501.623 252.017 501.87C251.91 502.109 251.865 502.405 251.884 502.758C251.902 503.104 251.977 503.394 252.11 503.627C252.249 503.86 252.421 504.035 252.628 504.151C252.84 504.26 253.06 504.308 253.286 504.297C253.606 504.28 253.858 504.196 254.044 504.047C254.23 503.897 254.356 503.696 254.423 503.446L255.532 503.388C255.427 503.941 255.19 504.387 254.821 504.727C254.451 505.067 253.96 505.253 253.348 505.285ZM260.065 504.933C259.592 504.957 259.164 504.873 258.78 504.68C258.396 504.486 258.087 504.202 257.854 503.827C257.62 503.445 257.49 502.991 257.462 502.465C257.435 501.94 257.517 501.478 257.71 501.081C257.902 500.677 258.18 500.358 258.541 500.126C258.903 499.893 259.323 499.764 259.803 499.739C260.282 499.714 260.71 499.799 261.088 499.992C261.472 500.186 261.777 500.474 262.004 500.856C262.237 501.231 262.368 501.681 262.395 502.207C262.423 502.733 262.34 503.198 262.148 503.602C261.955 503.999 261.678 504.314 261.316 504.547C260.961 504.779 260.544 504.908 260.065 504.933ZM260.012 503.924C260.265 503.911 260.495 503.842 260.702 503.718C260.909 503.593 261.07 503.411 261.184 503.172C261.305 502.925 261.356 502.622 261.337 502.262C261.318 501.896 261.235 501.6 261.09 501.374C260.951 501.148 260.772 500.984 260.553 500.882C260.341 500.779 260.109 500.735 259.856 500.748C259.603 500.761 259.373 500.83 259.165 500.954C258.958 501.079 258.794 501.261 258.673 501.501C258.559 501.74 258.511 502.043 258.531 502.409C258.559 502.955 258.717 503.351 259.003 503.596C259.296 503.835 259.633 503.944 260.012 503.924ZM265.353 505.787L266.165 502.941L267.553 502.868L266.391 505.733L265.353 505.787ZM278.102 503.867L278.054 502.948L279.712 502.862L279.448 497.838C279.437 497.619 279.325 497.515 279.112 497.526L277.913 497.588L277.865 496.67L279.253 496.597C279.639 496.577 279.938 496.665 280.148 496.861C280.365 497.049 280.484 497.337 280.504 497.723L280.77 502.806L282.438 502.719L282.486 503.637L278.102 503.867ZM287.212 503.51C286.739 503.535 286.311 503.45 285.927 503.257C285.543 503.063 285.234 502.779 285.001 502.404C284.767 502.023 284.637 501.569 284.609 501.043C284.582 500.517 284.664 500.055 284.857 499.658C285.05 499.254 285.327 498.936 285.688 498.703C286.05 498.471 286.47 498.342 286.95 498.317C287.429 498.291 287.857 498.376 288.235 498.57C288.619 498.763 288.924 499.051 289.151 499.433C289.385 499.808 289.515 500.258 289.542 500.784C289.57 501.31 289.488 501.775 289.295 502.179C289.102 502.576 288.825 502.891 288.463 503.124C288.108 503.356 287.691 503.485 287.212 503.51ZM287.159 502.501C287.412 502.488 287.642 502.419 287.849 502.295C288.056 502.171 288.217 501.989 288.331 501.749C288.452 501.502 288.503 501.199 288.484 500.84C288.465 500.474 288.382 500.177 288.237 499.951C288.098 499.725 287.92 499.561 287.701 499.459C287.488 499.356 287.256 499.312 287.003 499.325C286.75 499.338 286.52 499.407 286.313 499.532C286.105 499.656 285.941 499.838 285.82 500.078C285.706 500.318 285.659 500.621 285.678 500.987C285.706 501.533 285.864 501.928 286.151 502.174C286.443 502.412 286.78 502.521 287.159 502.501ZM292.115 500.079L292.068 499.18L295.503 499L295.55 499.899L292.115 500.079ZM298.588 504.997L298.539 504.068L299.348 504.026C299.581 504.013 299.745 503.955 299.839 503.85C299.941 503.751 299.986 503.588 299.974 503.362L299.728 498.668L298.47 498.734L298.423 497.835L299.681 497.77L299.645 497.08C299.616 496.528 299.731 496.125 299.992 495.871C300.252 495.617 300.635 495.476 301.141 495.45L302.35 495.387L302.398 496.315L301.32 496.372C301.087 496.384 300.923 496.439 300.828 496.538C300.733 496.636 300.692 496.802 300.704 497.035L300.739 497.714L302.467 497.623L302.514 498.522L300.786 498.613L301.033 503.316C301.062 503.869 300.946 504.272 300.686 504.526C300.425 504.78 300.039 504.921 299.526 504.947L298.588 504.997ZM307.167 496.616C306.934 496.628 306.734 496.565 306.566 496.427C306.405 496.282 306.319 496.1 306.307 495.88C306.296 495.66 306.363 495.473 306.508 495.319C306.66 495.164 306.853 495.08 307.086 495.068C307.325 495.056 307.526 495.119 307.686 495.257C307.854 495.395 307.943 495.574 307.955 495.794C307.966 496.013 307.896 496.204 307.744 496.366C307.599 496.52 307.406 496.604 307.167 496.616ZM305.479 502.432L305.431 501.514L306.989 501.432L306.843 498.646C306.831 498.426 306.719 498.322 306.506 498.333L305.407 498.391L305.359 497.472L306.647 497.404C307.06 497.383 307.365 497.464 307.561 497.647C307.764 497.823 307.876 498.118 307.898 498.53L308.047 501.377L309.605 501.295L309.653 502.214L305.479 502.432Z" fill="#F8A20D"/>
<path d="M140.418 560.906L140.262 557.94L143.306 559.273L140.418 560.906ZM153.498 561.963L153.182 555.921L151.304 556.02L151.254 555.071L156.068 554.819L156.118 555.767L154.24 555.866L154.557 561.908L153.498 561.963ZM158.368 561.708L158.001 554.717L160.288 554.598C160.834 554.569 161.288 554.639 161.651 554.807C162.02 554.974 162.3 555.213 162.49 555.524C162.686 555.827 162.794 556.179 162.815 556.578C162.839 557.031 162.744 557.44 162.529 557.805C162.321 558.163 161.985 558.434 161.52 558.619L163.141 561.458L161.913 561.522L160.43 558.826L159.281 558.886L159.426 561.652L158.368 561.708ZM159.231 557.928L160.399 557.866C160.879 557.841 161.223 557.716 161.431 557.492C161.646 557.267 161.745 556.981 161.727 556.635C161.708 556.282 161.584 556.008 161.353 555.814C161.122 555.612 160.761 555.524 160.268 555.55L159.109 555.611L159.231 557.928ZM165.154 561.352L165.105 560.413L166.623 560.334L166.355 555.221L164.857 555.299L164.808 554.361L168.862 554.148L168.912 555.087L167.414 555.165L167.682 560.278L169.2 560.199L169.249 561.138L165.154 561.352ZM171.602 561.014L171.235 554.024L172.294 553.968L172.61 560.01L176.056 559.83L176.105 560.778L171.602 561.014ZM177.789 560.69L177.423 553.7L178.481 553.644L178.633 556.54L181.689 556.38L181.537 553.484L182.596 553.429L182.962 560.419L181.904 560.474L181.74 557.349L178.684 557.509L178.848 560.635L177.789 560.69ZM184.246 560.352L185.967 553.252L187.225 553.186L189.679 560.067L188.531 560.127L187.973 558.474L185.776 558.589L185.395 560.291L184.246 560.352ZM186.645 554.718L185.971 557.728L187.689 557.638L186.705 554.715L186.645 554.718ZM200.213 559.635C199.72 559.661 199.283 559.594 198.901 559.433C198.525 559.273 198.222 559.032 197.992 558.71C197.768 558.388 197.64 557.997 197.61 557.538L198.728 557.48C198.753 557.832 198.889 558.129 199.135 558.37C199.388 558.603 199.727 558.709 200.153 558.687C200.546 558.666 200.848 558.56 201.058 558.369C201.268 558.171 201.365 557.926 201.35 557.633C201.337 557.386 201.26 557.187 201.118 557.034C200.983 556.874 200.776 556.738 200.496 556.626C200.216 556.507 199.856 556.389 199.416 556.272C198.827 556.116 198.387 555.882 198.097 555.57C197.807 555.252 197.649 554.853 197.624 554.373C197.595 553.821 197.771 553.364 198.153 553.004C198.535 552.643 199.075 552.445 199.774 552.408C200.453 552.372 201.008 552.52 201.44 552.852C201.871 553.176 202.109 553.648 202.155 554.266L201.026 554.325C201.018 554.159 200.963 554.001 200.861 553.853C200.76 553.698 200.62 553.575 200.441 553.485C200.263 553.387 200.047 553.345 199.794 553.358C199.481 553.368 199.222 553.458 199.017 553.629C198.812 553.794 198.717 554.009 198.73 554.275C198.748 554.601 198.891 554.851 199.16 555.024C199.429 555.19 199.862 555.354 200.458 555.517C200.83 555.617 201.161 555.747 201.449 555.905C201.744 556.057 201.979 556.261 202.153 556.519C202.333 556.77 202.433 557.099 202.455 557.505C202.474 557.878 202.399 558.222 202.228 558.538C202.058 558.847 201.801 559.101 201.457 559.299C201.12 559.497 200.706 559.609 200.213 559.635ZM206.71 559.295C206.238 559.319 205.81 559.245 205.427 559.071C205.05 558.897 204.746 558.62 204.512 558.238C204.278 557.85 204.145 557.353 204.113 556.747L203.881 552.313L204.939 552.258L205.175 556.751C205.203 557.284 205.351 557.69 205.619 557.97C205.887 558.243 206.241 558.368 206.68 558.345C207.12 558.322 207.459 558.16 207.697 557.861C207.934 557.555 208.039 557.135 208.011 556.603L207.776 552.109L208.834 552.053L209.066 556.487C209.098 557.093 209.015 557.602 208.816 558.013C208.617 558.417 208.333 558.725 207.963 558.938C207.601 559.151 207.183 559.27 206.71 559.295ZM213.227 558.953C212.708 558.98 212.244 558.858 211.836 558.585C211.428 558.306 211.099 557.903 210.852 557.375C210.604 556.847 210.46 556.214 210.421 555.475C210.383 554.749 210.46 554.111 210.652 553.56C210.843 553.01 211.134 552.574 211.524 552.253C211.921 551.925 212.406 551.746 212.978 551.716C213.671 551.68 214.236 551.84 214.676 552.198C215.122 552.555 215.409 553.077 215.539 553.765L214.391 553.825C214.305 553.469 214.144 553.19 213.906 552.989C213.675 552.788 213.383 552.696 213.031 552.715C212.491 552.743 212.091 552.998 211.829 553.479C211.567 553.96 211.457 554.606 211.5 555.419C211.544 556.264 211.728 556.905 212.051 557.342C212.381 557.772 212.789 557.975 213.275 557.949C213.601 557.932 213.866 557.821 214.069 557.617C214.272 557.413 214.422 557.158 214.519 556.852C214.616 556.54 214.669 556.214 214.678 555.873L213.21 555.95L213.164 555.071L215.701 554.938L215.897 558.693L214.919 558.744L214.8 557.809L214.74 557.812C214.623 558.125 214.449 558.388 214.22 558.601C213.991 558.813 213.66 558.93 213.227 558.953ZM217.701 558.598L217.335 551.608L221.799 551.374L221.848 552.323L218.443 552.501L218.55 554.538L221.655 554.376L221.705 555.314L218.599 555.477L218.71 557.594L222.115 557.416L222.165 558.364L217.701 558.598ZM224.238 558.256L223.872 551.265L226.159 551.145C226.705 551.117 227.159 551.187 227.521 551.354C227.891 551.522 228.17 551.761 228.36 552.072C228.556 552.375 228.665 552.726 228.686 553.126C228.709 553.579 228.614 553.988 228.4 554.353C228.191 554.711 227.855 554.982 227.391 555.167L229.012 558.006L227.783 558.07L226.3 555.374L225.152 555.434L225.297 558.2L224.238 558.256ZM225.101 554.475L226.27 554.414C226.749 554.389 227.093 554.264 227.302 554.04C227.517 553.815 227.615 553.529 227.597 553.183C227.579 552.83 227.454 552.556 227.224 552.361C226.993 552.16 226.631 552.072 226.138 552.098L224.98 552.159L225.101 554.475ZM231.025 557.9L230.976 556.961L232.494 556.882L232.226 551.769L230.728 551.847L230.679 550.909L234.733 550.696L234.782 551.635L233.284 551.713L233.552 556.826L235.07 556.747L235.119 557.685L231.025 557.9ZM237.232 557.575L236.866 550.584L238.544 550.496C239.669 550.437 240.521 550.707 241.1 551.304C241.678 551.894 241.996 552.732 242.052 553.817C242.109 554.903 241.881 555.772 241.368 556.427C240.855 557.074 240.035 557.428 238.91 557.487L237.232 557.575ZM238.24 556.541L238.819 556.51C239.631 556.468 240.205 556.211 240.541 555.739C240.876 555.261 241.024 554.639 240.984 553.873C240.944 553.108 240.732 552.508 240.349 552.074C239.965 551.634 239.367 551.435 238.555 551.477L237.976 551.508L238.24 556.541ZM243.53 557.245L245.251 550.145L246.509 550.079L248.962 556.96L247.814 557.02L247.257 555.367L245.06 555.482L244.678 557.185L243.53 557.245ZM245.928 551.611L245.255 554.621L246.973 554.531L245.988 551.608L245.928 551.611Z" fill="#F5EEDE"/>
<path d="M353.863 551.583C353.337 551.61 352.864 551.488 352.442 551.216C352.027 550.944 351.693 550.545 351.438 550.017C351.19 549.49 351.047 548.853 351.007 548.107C350.968 547.362 351.045 546.713 351.236 546.163C351.434 545.611 351.725 545.179 352.109 544.865C352.5 544.551 352.958 544.38 353.484 544.352C354.017 544.325 354.491 544.447 354.905 544.719C355.32 544.991 355.652 545.39 355.9 545.918C356.154 546.446 356.301 547.082 356.34 547.828C356.379 548.573 356.3 549.222 356.102 549.773C355.91 550.324 355.622 550.756 355.238 551.07C354.854 551.384 354.396 551.555 353.863 551.583ZM351.866 548.062C351.89 548.515 351.958 548.922 352.07 549.283C352.189 549.637 352.342 549.933 352.528 550.17L354.213 545.266C354.001 545.163 353.772 545.118 353.525 545.131C353.172 545.15 352.866 545.283 352.605 545.53C352.344 545.771 352.148 546.108 352.017 546.542C351.886 546.97 351.836 547.476 351.866 548.062ZM353.823 550.814C354.176 550.795 354.483 550.666 354.744 550.425C355.005 550.178 355.2 549.837 355.331 549.403C355.462 548.969 355.512 548.459 355.481 547.873C355.458 547.42 355.386 547.017 355.268 546.662C355.155 546.301 355.006 546.002 354.82 545.764L353.125 550.68C353.344 550.782 353.577 550.826 353.823 550.814ZM358.187 551.236L358.153 550.577C358.842 549.966 359.44 549.408 359.947 548.9C360.461 548.393 360.853 547.908 361.123 547.447C361.392 546.986 361.515 546.522 361.491 546.056C361.469 545.636 361.331 545.313 361.079 545.086C360.833 544.852 360.511 544.745 360.111 544.766C359.805 544.782 359.549 544.862 359.343 545.007C359.137 545.151 358.986 545.336 358.891 545.561C358.796 545.786 358.755 546.026 358.769 546.279L357.94 546.322C357.922 545.862 358.002 545.464 358.177 545.128C358.36 544.785 358.613 544.518 358.937 544.327C359.267 544.136 359.645 544.03 360.071 544.007C360.757 543.971 361.3 544.133 361.699 544.493C362.098 544.852 362.315 545.352 362.348 545.991C362.37 546.41 362.302 546.818 362.142 547.213C361.982 547.602 361.762 547.981 361.481 548.349C361.2 548.718 360.881 549.075 360.525 549.421C360.17 549.767 359.81 550.099 359.446 550.419L362.762 550.245L362.801 550.994L358.187 551.236ZM367.032 550.792C366.826 550.803 366.646 550.742 366.492 550.61C366.338 550.478 366.256 550.309 366.245 550.102C366.235 549.903 366.299 549.729 366.438 549.582C366.577 549.434 366.75 549.355 366.956 549.344C367.163 549.333 367.343 549.394 367.497 549.526C367.65 549.658 367.732 549.824 367.743 550.024C367.754 550.23 367.69 550.407 367.55 550.555C367.411 550.702 367.239 550.781 367.032 550.792ZM366.825 546.848C366.619 546.858 366.439 546.798 366.285 546.666C366.131 546.534 366.049 546.364 366.038 546.158C366.028 545.958 366.092 545.785 366.231 545.637C366.37 545.49 366.543 545.41 366.75 545.4C366.956 545.389 367.136 545.449 367.29 545.582C367.444 545.714 367.526 545.88 367.536 546.079C367.547 546.286 367.483 546.463 367.344 546.61C367.205 546.758 367.032 546.837 366.825 546.848ZM371.321 550.547L371.282 549.788L373.089 549.694L372.814 544.451L371.124 544.87L371.09 544.231L373.042 543.448L373.601 543.418L373.928 549.65L375.835 549.55L375.875 550.309L371.321 550.547ZM381.064 550.037L380.979 548.419L377.634 548.594L377.6 547.945L380.538 543.055L381.537 543.002L381.778 547.616L382.777 547.564L382.817 548.323L381.818 548.375L381.903 549.993L381.064 550.037ZM378.533 547.786L380.979 547.658L380.789 544.023L378.533 547.786Z" fill="#F5EEDE" fill-opacity="0.5"/>
<rect opacity="0.85" x="142.465" y="605.808" width="2.39353" height="12.7876" rx="1" transform="rotate(-3 142.465 605.808)" fill="url(#paint4_linear_503_1176)"/>
<rect opacity="0.85" x="146.391" y="596.778" width="2.39301" height="21.5996" rx="1" transform="rotate(-3 146.391 596.778)" fill="url(#paint5_linear_503_1176)"/>
<rect opacity="0.85" x="150.276" y="586.968" width="2.39301" height="31.1931" rx="1" transform="rotate(-3 150.276 586.968)" fill="url(#paint6_linear_503_1176)"/>
<rect opacity="0.85" x="155.333" y="599.519" width="2.39301" height="18.3951" rx="1" transform="rotate(-3 155.333 599.519)" fill="url(#paint7_linear_503_1176)"/>
<rect opacity="0.85" x="159.384" y="592.888" width="2.39301" height="24.8041" rx="1" transform="rotate(-3 159.384 592.888)" fill="url(#paint8_linear_503_1176)"/>
<rect opacity="0.85" x="163.228" y="582.289" width="2.39353" height="35.1881" rx="1" transform="rotate(-3 163.228 582.289)" fill="url(#paint9_linear_503_1176)"/>
<rect opacity="0.85" x="168.62" y="601.218" width="2.39353" height="16.0021" rx="1" transform="rotate(-3 168.62 601.218)" fill="url(#paint10_linear_503_1176)"/>
<rect opacity="0.85" x="172.631" y="593.809" width="2.38302" height="23.1916" rx="1" transform="rotate(-3 172.631 593.809)" fill="url(#paint11_linear_503_1176)"/>
<rect opacity="0.85" x="176.714" y="587.979" width="2.38355" height="28.7991" rx="1" transform="rotate(-3 176.714 587.979)" fill="url(#paint12_linear_503_1176)"/>
<rect opacity="0.85" x="181.887" y="602.93" width="2.38302" height="13.5985" rx="1" transform="rotate(-3 181.887 602.93)" fill="url(#paint13_linear_503_1176)"/>
<rect opacity="0.85" x="185.972" y="597.121" width="2.39353" height="19.1861" rx="1" transform="rotate(-3 185.972 597.121)" fill="url(#paint14_linear_503_1176)"/>
<rect opacity="0.85" x="189.647" y="583.3" width="2.39353" height="32.7951" rx="1" transform="rotate(-3 189.647 583.3)" fill="url(#paint15_linear_503_1176)"/>
<rect opacity="0.85" x="194.412" y="590.261" width="2.39353" height="25.5951" rx="1" transform="rotate(-3 194.412 590.261)" fill="url(#paint16_linear_503_1176)"/>
<rect opacity="0.85" x="199.386" y="601.22" width="2.39353" height="14.3901" rx="1" transform="rotate(-3 199.386 601.22)" fill="url(#paint17_linear_503_1176)"/>
<rect opacity="0.85" x="203.396" y="593.791" width="2.39301" height="21.5996" rx="1" transform="rotate(-3 203.396 593.791)" fill="url(#paint18_linear_503_1176)"/>
<rect opacity="0.85" x="207.029" y="579.181" width="2.39353" height="35.9996" rx="1" transform="rotate(-3 207.029 579.181)" fill="url(#paint19_linear_503_1176)"/>
<rect opacity="0.85" x="212.421" y="598.121" width="2.39301" height="16.8031" rx="1" transform="rotate(-3 212.421 598.121)" fill="url(#paint20_linear_503_1176)"/>
<rect opacity="0.85" x="216.431" y="590.701" width="2.39301" height="24.0031" rx="1" transform="rotate(-3 216.431 590.701)" fill="url(#paint21_linear_503_1176)"/>
<rect opacity="0.85" x="220.526" y="584.891" width="2.39353" height="29.5906" rx="1" transform="rotate(-3 220.526 584.891)" fill="url(#paint22_linear_503_1176)"/>
<rect opacity="0.85" x="225.667" y="599.042" width="2.39301" height="15.1906" rx="1" transform="rotate(-3 225.667 599.042)" fill="url(#paint23_linear_503_1176)"/>
<rect opacity="0.85" x="229.761" y="593.211" width="2.39301" height="20.7986" rx="1" transform="rotate(-3 229.761 593.211)" fill="url(#paint24_linear_503_1176)"/>
<rect opacity="0.85" x="233.561" y="581.792" width="2.39301" height="32.0036" rx="1" transform="rotate(-3 233.561 581.792)" fill="url(#paint25_linear_503_1176)"/>
<rect opacity="0.85" x="238.66" y="595.151" width="2.38302" height="18.3951" rx="1" transform="rotate(-3 238.66 595.151)" fill="url(#paint26_linear_503_1176)"/>
<rect opacity="0.85" x="242.661" y="587.732" width="2.39301" height="25.5951" rx="1" transform="rotate(-3 242.661 587.732)" fill="url(#paint27_linear_503_1176)"/>
<rect opacity="0.85" x="246.546" y="577.922" width="2.38302" height="35.1881" rx="1" transform="rotate(-3 246.546 577.922)" fill="url(#paint28_linear_503_1176)"/>
<rect opacity="0.85" x="252.136" y="600.853" width="2.39353" height="11.9966" rx="1" transform="rotate(-3 252.136 600.853)" fill="url(#paint29_linear_503_1176)"/>
<rect opacity="0.85" x="255.98" y="590.243" width="2.38302" height="22.3906" rx="1" transform="rotate(-3 255.98 590.243)" fill="url(#paint30_linear_503_1176)"/>
<rect opacity="0.85" x="260.021" y="583.613" width="2.39301" height="28.7996" rx="1" transform="rotate(-3 260.021 583.613)" fill="url(#paint31_linear_503_1176)"/>
<rect opacity="0.85" x="265.037" y="595.374" width="2.38355" height="16.7931" rx="1" transform="rotate(-3 265.037 595.374)" fill="url(#paint32_linear_503_1176)"/>
<rect opacity="0.85" x="268.912" y="585.564" width="2.39353" height="26.3861" rx="1" transform="rotate(-3 268.912 585.564)" fill="url(#paint33_linear_503_1176)"/>
<rect opacity="0.85" x="272.922" y="578.134" width="2.38302" height="33.5961" rx="1" transform="rotate(-3 272.922 578.134)" fill="url(#paint34_linear_503_1176)"/>
<rect opacity="0.85" x="278.263" y="596.285" width="2.38302" height="15.1906" rx="1" transform="rotate(-3 278.263 596.285)" fill="url(#paint35_linear_503_1176)"/>
<rect opacity="0.85" x="282.388" y="591.256" width="2.39353" height="19.9971" rx="1" transform="rotate(-3 282.388 591.256)" fill="url(#paint36_linear_503_1176)"/>
<rect opacity="0.85" x="286.232" y="580.646" width="2.39301" height="30.3916" rx="1" transform="rotate(-3 286.232 580.646)" fill="url(#paint37_linear_503_1176)"/>
<rect opacity="0.85" x="290.954" y="586.806" width="2.39353" height="23.9926" rx="1" transform="rotate(-3 290.954 586.806)" fill="url(#paint38_linear_503_1176)"/>
<rect opacity="0.85" x="295.886" y="596.965" width="2.38355" height="13.5886" rx="1" transform="rotate(-3 295.886 596.965)" fill="url(#paint39_linear_503_1176)"/>
<rect opacity="0.85" x="299.761" y="587.156" width="2.39353" height="23.1816" rx="1" transform="rotate(-3 299.761 587.156)" fill="url(#paint40_linear_503_1176)"/>
<rect opacity="0.85" x="303.562" y="575.736" width="2.39353" height="34.3871" rx="1" transform="rotate(-3 303.562 575.736)" fill="url(#paint41_linear_503_1176)"/>
<rect opacity="0.85" x="308.829" y="592.276" width="2.39301" height="17.5941" rx="1" transform="rotate(-3 308.829 592.276)" fill="url(#paint42_linear_503_1176)"/>
<rect opacity="0.85" x="312.839" y="584.856" width="2.39301" height="24.7941" rx="1" transform="rotate(-3 312.839 584.856)" fill="url(#paint43_linear_503_1176)"/>
<rect opacity="0.85" x="316.891" y="578.247" width="2.39353" height="31.1826" rx="1" transform="rotate(-3 316.891 578.247)" fill="url(#paint44_linear_503_1176)"/>
<rect opacity="0.85" x="322.158" y="594.786" width="2.39301" height="14.3901" rx="1" transform="rotate(-3 322.158 594.786)" fill="url(#paint45_linear_503_1176)"/>
<rect opacity="0.85" x="326.168" y="587.367" width="2.39353" height="21.5896" rx="1" transform="rotate(-3 326.168 587.367)" fill="url(#paint46_linear_503_1176)"/>
<rect opacity="0.85" x="330.22" y="580.736" width="2.39301" height="27.9986" rx="1" transform="rotate(-3 330.22 580.736)" fill="url(#paint47_linear_503_1176)"/>
<rect opacity="0.85" x="335.068" y="589.307" width="2.38302" height="19.1861" rx="1" transform="rotate(-3 335.068 589.307)" fill="url(#paint48_linear_503_1176)"/>
<rect opacity="0.85" x="338.733" y="575.488" width="2.39301" height="32.7946" rx="1" transform="rotate(-3 338.733 575.488)" fill="url(#paint49_linear_503_1176)"/>
<rect opacity="0.85" x="344.167" y="595.237" width="2.39353" height="12.7876" rx="1" transform="rotate(-3 344.167 595.237)" fill="url(#paint50_linear_503_1176)"/>
<rect opacity="0.85" x="347.884" y="582.217" width="2.39353" height="25.5951" rx="1" transform="rotate(-3 347.884 582.217)" fill="url(#paint51_linear_503_1176)"/>
<rect opacity="0.85" x="352.564" y="587.567" width="2.39301" height="20.0076" rx="1" transform="rotate(-3 352.564 587.567)" fill="url(#paint52_linear_503_1176)"/>
<rect opacity="0.85" x="356.449" y="577.757" width="2.39301" height="29.6006" rx="1" transform="rotate(-3 356.449 577.757)" fill="url(#paint53_linear_503_1176)"/>
<rect opacity="0.85" x="361.548" y="591.107" width="2.39353" height="16.0021" rx="1" transform="rotate(-3 361.548 591.107)" fill="url(#paint54_linear_503_1176)"/>
<rect opacity="0.85" x="365.559" y="583.698" width="2.39353" height="23.1916" rx="1" transform="rotate(-3 365.559 583.698)" fill="url(#paint55_linear_503_1176)"/>
<rect opacity="0.85" x="369.319" y="571.488" width="2.38355" height="35.1881" rx="1" transform="rotate(-3 369.319 571.488)" fill="url(#paint56_linear_503_1176)"/>
<rect opacity="0.85" x="374.575" y="588.028" width="2.39301" height="18.3951" rx="1" transform="rotate(-3 374.575 588.028)" fill="url(#paint57_linear_503_1176)"/>
<rect opacity="0.85" x="378.543" y="579.808" width="2.39301" height="26.3966" rx="1" transform="rotate(-3 378.543 579.808)" fill="url(#paint58_linear_503_1176)"/>
<rect opacity="0.85" x="383.517" y="590.769" width="2.38355" height="15.1906" rx="1" transform="rotate(-3 383.517 590.769)" fill="url(#paint59_linear_503_1176)"/>
<g opacity="0.7">
<path d="M145.159 642.405L148.17 633.735L149.049 633.689L146.028 642.359L145.159 642.405ZM151.747 642.059L154.757 633.39L155.636 633.344L152.615 642.014L151.747 642.059ZM166.927 640.483C166.501 640.505 166.117 640.442 165.775 640.293C165.44 640.137 165.165 639.921 164.95 639.645C164.742 639.362 164.612 639.042 164.56 638.684L165.369 638.642C165.447 638.992 165.618 639.266 165.882 639.466C166.153 639.659 166.488 639.745 166.887 639.724C167.413 639.696 167.83 639.437 168.138 638.947C168.446 638.451 168.597 637.695 168.59 636.681L168.53 636.684C168.367 637.006 168.151 637.274 167.882 637.489C167.612 637.703 167.225 637.824 166.719 637.85C166.3 637.872 165.918 637.795 165.575 637.62C165.232 637.444 164.952 637.192 164.735 636.863C164.524 636.533 164.407 636.152 164.384 635.719C164.362 635.293 164.435 634.899 164.603 634.536C164.777 634.167 165.031 633.866 165.366 633.635C165.708 633.404 166.112 633.276 166.578 633.251C167.457 633.205 168.128 633.47 168.592 634.047C169.057 634.623 169.316 635.428 169.37 636.459C169.41 637.225 169.342 637.906 169.166 638.503C168.99 639.093 168.715 639.565 168.339 639.918C167.964 640.265 167.493 640.453 166.927 640.483ZM166.839 637.083C167.305 637.058 167.67 636.892 167.934 636.585C168.199 636.277 168.319 635.904 168.296 635.464C168.273 635.025 168.114 634.666 167.819 634.388C167.524 634.11 167.144 633.983 166.678 634.007C166.212 634.031 165.847 634.197 165.582 634.505C165.325 634.812 165.207 635.186 165.23 635.625C165.254 636.071 165.41 636.433 165.698 636.712C165.993 636.984 166.373 637.107 166.839 637.083ZM171.371 640.13L171.336 639.471C172.025 638.86 172.623 638.302 173.131 637.794C173.645 637.287 174.037 636.802 174.306 636.341C174.576 635.88 174.699 635.416 174.674 634.95C174.652 634.53 174.515 634.207 174.263 633.98C174.017 633.746 173.694 633.639 173.295 633.66C172.989 633.676 172.732 633.756 172.526 633.901C172.32 634.045 172.17 634.23 172.075 634.455C171.98 634.68 171.939 634.92 171.952 635.173L171.123 635.216C171.106 634.756 171.185 634.358 171.361 634.022C171.543 633.679 171.796 633.412 172.12 633.221C172.451 633.03 172.829 632.924 173.255 632.901C173.941 632.865 174.483 633.027 174.883 633.387C175.282 633.746 175.498 634.246 175.532 634.885C175.554 635.304 175.485 635.712 175.326 636.107C175.166 636.496 174.945 636.875 174.664 637.243C174.383 637.612 174.065 637.969 173.709 638.315C173.353 638.661 172.993 638.993 172.63 639.313L175.945 639.139L175.984 639.888L171.371 640.13ZM178.666 635.722C178.24 635.744 177.88 635.623 177.586 635.358C177.298 635.093 177.142 634.724 177.117 634.251C177.092 633.778 177.209 633.395 177.467 633.101C177.732 632.807 178.078 632.649 178.504 632.626C178.93 632.604 179.287 632.725 179.574 632.991C179.869 633.256 180.028 633.624 180.053 634.097C180.078 634.57 179.958 634.953 179.693 635.248C179.434 635.541 179.092 635.7 178.666 635.722ZM178.635 635.123C178.848 635.112 179.03 635.022 179.181 634.854C179.339 634.679 179.41 634.438 179.394 634.132C179.378 633.825 179.282 633.597 179.108 633.446C178.939 633.288 178.748 633.214 178.535 633.225C178.322 633.237 178.137 633.33 177.979 633.505C177.828 633.673 177.76 633.91 177.776 634.216C177.792 634.523 177.884 634.755 178.053 634.913C178.228 635.064 178.422 635.134 178.635 635.123ZM177.884 639.138L177.38 638.693L182.179 633.205L182.683 633.649L177.884 639.138ZM181.559 639.716C181.133 639.738 180.773 639.617 180.479 639.352C180.191 639.087 180.035 638.718 180.01 638.245C179.985 637.772 180.102 637.389 180.36 637.095C180.625 636.801 180.971 636.643 181.397 636.62C181.823 636.598 182.18 636.719 182.467 636.985C182.762 637.25 182.921 637.619 182.946 638.091C182.971 638.564 182.851 638.947 182.586 639.242C182.327 639.536 181.985 639.694 181.559 639.716ZM181.528 639.117C181.741 639.106 181.923 639.016 182.074 638.848C182.232 638.673 182.303 638.432 182.287 638.126C182.271 637.819 182.175 637.591 182.001 637.44C181.832 637.282 181.641 637.208 181.428 637.219C181.215 637.231 181.03 637.324 180.872 637.499C180.721 637.667 180.653 637.904 180.669 638.211C180.685 638.517 180.777 638.749 180.946 638.907C181.121 639.058 181.315 639.128 181.528 639.117ZM190.892 639.107L190.526 632.116L191.425 632.069L193.197 635.311L194.62 631.902L195.519 631.855L195.885 638.845L195.066 638.888L194.785 633.515L193.575 636.413L192.936 636.446L191.43 633.701L191.711 639.064L190.892 639.107ZM197.309 638.77L199.13 631.665L200.099 631.615L202.642 638.491L201.723 638.539L201.123 636.828L198.646 636.958L198.228 638.722L197.309 638.77ZM199.651 632.82L198.82 636.248L200.877 636.14L199.691 632.818L199.651 632.82ZM206.143 638.307L205.817 632.076L203.939 632.174L203.9 631.415L208.493 631.175L208.533 631.934L206.656 632.032L206.982 638.263L206.143 638.307ZM213.206 638.057C212.64 638.087 212.143 637.963 211.715 637.685C211.293 637.407 210.958 637.004 210.71 636.476C210.469 635.948 210.329 635.318 210.29 634.585C210.252 633.86 210.326 633.222 210.511 632.671C210.702 632.114 210.992 631.675 211.383 631.354C211.78 631.032 212.261 630.857 212.827 630.827C213.546 630.79 214.136 630.959 214.596 631.335C215.056 631.705 215.34 632.218 215.448 632.873L214.519 632.922C214.432 632.532 214.248 632.212 213.968 631.959C213.688 631.707 213.321 631.593 212.869 631.616C212.289 631.647 211.847 631.924 211.54 632.447C211.234 632.964 211.103 633.661 211.149 634.54C211.196 635.426 211.398 636.109 211.757 636.591C212.116 637.073 212.586 637.299 213.165 637.269C213.637 637.244 213.994 637.098 214.233 636.832C214.48 636.565 214.626 636.231 214.671 635.828L215.6 635.779C215.529 636.45 215.29 636.99 214.884 637.399C214.484 637.8 213.925 638.02 213.206 638.057ZM217.21 637.727L216.844 630.737L217.683 630.693L217.841 633.709L221.226 633.532L221.068 630.516L221.907 630.472L222.274 637.462L221.435 637.506L221.266 634.29L217.881 634.468L218.049 637.683L217.21 637.727Z" fill="#F5EEDE"/>
<path d="M362.725 630.101L362.358 623.111L364.685 622.989C365.218 622.961 365.659 623.035 366.009 623.21C366.358 623.385 366.621 623.629 366.798 623.94C366.974 624.251 367.073 624.6 367.093 624.986C367.113 625.372 367.052 625.729 366.909 626.057C366.766 626.385 366.53 626.654 366.2 626.865C365.871 627.076 365.44 627.195 364.907 627.223L363.419 627.301L363.564 630.058L362.725 630.101ZM363.379 626.532L364.847 626.455C365.34 626.43 365.699 626.287 365.926 626.028C366.152 625.763 366.255 625.43 366.234 625.031C366.213 624.631 366.076 624.311 365.823 624.071C365.571 623.831 365.198 623.723 364.705 623.749L363.237 623.826L363.379 626.532ZM369.442 629.749L369.075 622.759L369.914 622.715L370.241 628.947L373.786 628.761L373.826 629.52L369.442 629.749ZM375.489 629.433L377.31 622.327L378.279 622.277L380.822 629.153L379.903 629.201L379.303 627.49L376.826 627.62L376.408 629.384L375.489 629.433ZM377.831 623.482L377 626.91L379.057 626.802L377.871 623.48L377.831 623.482ZM384.323 628.97L384.18 626.223L381.69 622.098L382.639 622.048L384.554 625.352L386.114 621.866L387.063 621.816L385.018 626.179L385.162 628.926L384.323 628.97Z" fill="#F8A20D"/>
</g>
<rect x="183.565" y="110.775" width="110.001" height="27.9981" rx="13.999" transform="rotate(-3 183.565 110.775)" fill="black"/>
<rect x="240.045" y="653.562" width="53.9967" height="54.0067" rx="26.9984" transform="rotate(-3 240.045 653.562)" stroke="#F5EEDE" stroke-width="2"/>
<rect x="245.299" y="658.295" width="44.0002" height="44.0002" rx="22" transform="rotate(-3 245.299 658.295)" fill="#F5EEDE"/>
<path d="M118.303 130.216L118.265 129.491C119.023 128.82 119.681 128.205 120.239 127.647C120.805 127.089 121.236 126.556 121.532 126.048C121.829 125.541 121.964 125.03 121.937 124.518C121.913 124.057 121.762 123.701 121.484 123.451C121.214 123.194 120.859 123.076 120.419 123.099C120.083 123.117 119.801 123.205 119.574 123.364C119.347 123.523 119.182 123.726 119.077 123.974C118.973 124.222 118.928 124.485 118.943 124.763L118.031 124.811C118.012 124.305 118.099 123.867 118.292 123.497C118.493 123.12 118.771 122.826 119.127 122.616C119.491 122.406 119.907 122.289 120.376 122.264C121.13 122.225 121.727 122.403 122.166 122.799C122.605 123.194 122.844 123.743 122.88 124.446C122.905 124.908 122.829 125.356 122.653 125.791C122.478 126.219 122.235 126.635 121.926 127.041C121.617 127.446 121.266 127.839 120.875 128.22C120.484 128.6 120.088 128.966 119.688 129.317L123.335 129.126L123.378 129.95L118.303 130.216ZM124.89 129.871L124.852 129.146C125.61 128.474 126.268 127.86 126.826 127.302C127.391 126.743 127.822 126.21 128.119 125.703C128.416 125.195 128.55 124.685 128.523 124.173C128.499 123.711 128.348 123.356 128.071 123.106C127.8 122.848 127.446 122.731 127.006 122.754C126.669 122.772 126.387 122.86 126.161 123.019C125.934 123.177 125.769 123.381 125.664 123.629C125.56 123.876 125.515 124.139 125.529 124.418L124.617 124.466C124.598 123.96 124.685 123.522 124.879 123.152C125.08 122.774 125.358 122.481 125.714 122.271C126.078 122.061 126.494 121.944 126.962 121.919C127.717 121.88 128.313 122.058 128.753 122.453C129.192 122.849 129.43 123.398 129.467 124.101C129.491 124.563 129.416 125.011 129.24 125.446C129.064 125.874 128.822 126.29 128.512 126.696C128.203 127.101 127.853 127.494 127.462 127.874C127.07 128.255 126.675 128.621 126.275 128.972L129.922 128.781L129.965 129.605L124.89 129.871ZM133.96 129.417C133.733 129.429 133.535 129.363 133.366 129.217C133.197 129.072 133.106 128.886 133.094 128.659C133.083 128.439 133.153 128.248 133.307 128.086C133.46 127.923 133.65 127.836 133.877 127.825C134.104 127.813 134.302 127.879 134.471 128.025C134.64 128.17 134.73 128.353 134.742 128.572C134.754 128.799 134.683 128.994 134.53 129.156C134.377 129.318 134.187 129.405 133.96 129.417ZM133.733 125.078C133.506 125.09 133.308 125.023 133.138 124.878C132.969 124.733 132.879 124.547 132.867 124.32C132.855 124.1 132.926 123.909 133.079 123.747C133.232 123.584 133.422 123.497 133.649 123.485C133.876 123.474 134.074 123.54 134.244 123.686C134.413 123.831 134.503 124.014 134.515 124.233C134.526 124.46 134.456 124.655 134.303 124.817C134.15 124.979 133.96 125.066 133.733 125.078ZM138.019 129.183L137.975 128.348L139.964 128.244L139.661 122.476L137.802 122.937L137.765 122.234L139.912 121.373L140.527 121.341L140.886 128.195L142.984 128.085L143.028 128.92L138.019 129.183ZM148.077 128.655L147.984 126.876L144.304 127.069L144.266 126.355L147.498 120.975L148.597 120.918L148.863 125.993L149.961 125.935L150.005 126.77L148.906 126.828L149 128.607L148.077 128.655ZM145.293 126.18L147.984 126.039L147.774 122.04L145.293 126.18Z" fill="#F5EEDE"/>
<g clip-path="url(#clip3_503_1176)">
<path d="M306.575 117.429L304.827 117.521L305.01 121.016L306.758 120.924L306.575 117.429Z" fill="#F5EEDE"/>
<path d="M309.396 115.529L307.648 115.62L307.923 120.863L309.67 120.771L309.396 115.529Z" fill="#F5EEDE"/>
<path d="M312.186 113.046L310.439 113.137L310.835 120.71L312.583 120.619L312.186 113.046Z" fill="#F5EEDE"/>
<path d="M315.007 111.146L313.259 111.237L313.748 120.558L315.495 120.466L315.007 111.146Z" fill="#F5EEDE"/>
</g>
<g clip-path="url(#clip4_503_1176)">
<g clip-path="url(#clip5_503_1176)">
<path d="M324.064 113.592C325.648 112.181 327.665 111.353 329.783 111.242C331.9 111.131 333.993 111.744 335.715 112.981" stroke="#F5EEDE" stroke-width="0.93327" stroke-linecap="round"/>
<path d="M325.934 115.83C327.032 114.823 328.447 114.229 329.935 114.151C331.423 114.073 332.892 114.515 334.089 115.402" stroke="#F5EEDE" stroke-width="0.93327" stroke-linecap="round"/>
<path d="M328.079 117.761C328.651 117.303 329.352 117.036 330.084 116.998C330.815 116.96 331.541 117.152 332.157 117.548" stroke="#F5EEDE" stroke-width="0.93327" stroke-linecap="round"/>
<path d="M330.256 120.276C330.577 120.259 330.824 119.984 330.808 119.663C330.791 119.341 330.516 119.094 330.195 119.111C329.873 119.127 329.626 119.402 329.643 119.724C329.659 120.045 329.934 120.293 330.256 120.276Z" fill="#F5EEDE" stroke="#F5EEDE" stroke-width="0.93327" stroke-linecap="round"/>
</g>
</g>
<g clip-path="url(#clip6_503_1176)">
<path d="M355.649 111.936L346.909 112.394C346.426 112.419 346.055 112.831 346.081 113.313L346.233 116.227C346.259 116.71 346.671 117.08 347.153 117.055L355.894 116.597C356.376 116.572 356.747 116.16 356.722 115.677L356.569 112.764C356.544 112.281 356.132 111.91 355.649 111.936Z" stroke="#F5EEDE" stroke-width="0.816873"/>
<path d="M353.947 112.901L346.955 113.268L347.107 116.181L354.1 115.815L353.947 112.901Z" fill="#F5EEDE" stroke="#F5EEDE" stroke-width="0.816873"/>
<path d="M358.056 113.27L356.891 113.331L356.983 115.079L358.148 115.018L358.056 113.27Z" fill="#F5EEDE" stroke="#F5EEDE" stroke-width="0.816873"/>
</g>
</g>
<defs>
<filter id="filter0_ddd_503_1176" x="7.62939e-06" y="0" width="509.213" height="850.953" filterUnits="userSpaceOnUse" color-interpolation-filters="sRGB">
<feFlood flood-opacity="0" result="BackgroundImageFix"/>
<feColorMatrix in="SourceAlpha" type="matrix" values="0 0 0 0 0 0 0 0 0 0 0 0 0 0 0 0 0 0 127 0" result="hardAlpha"/>
<feOffset/>
<feGaussianBlur stdDeviation="40"/>
<feComposite in2="hardAlpha" operator="out"/>
<feColorMatrix type="matrix" values="0 0 0 0 0.972549 0 0 0 0 0.635294 0 0 0 0 0.0509804 0 0 0 0.18 0"/>
<feBlend mode="normal" in2="BackgroundImageFix" result="effect1_dropShadow_503_1176"/>
<feColorMatrix in="SourceAlpha" type="matrix" values="0 0 0 0 0 0 0 0 0 0 0 0 0 0 0 0 0 0 127 0" result="hardAlpha"/>
<feMorphology radius="2" operator="dilate" in="SourceAlpha" result="effect2_dropShadow_503_1176"/>
<feOffset/>
<feComposite in2="hardAlpha" operator="out"/>
<feColorMatrix type="matrix" values="0 0 0 0 0.121569 0 0 0 0 0.0784314 0 0 0 0 0.0862745 0 0 0 1 0"/>
<feBlend mode="normal" in2="effect1_dropShadow_503_1176" result="effect2_dropShadow_503_1176"/>
<feColorMatrix in="SourceAlpha" type="matrix" values="0 0 0 0 0 0 0 0 0 0 0 0 0 0 0 0 0 0 127 0" result="hardAlpha"/>
<feMorphology radius="20" operator="erode" in="SourceAlpha" result="effect3_dropShadow_503_1176"/>
<feOffset dy="40"/>
<feGaussianBlur stdDeviation="40"/>
<feComposite in2="hardAlpha" operator="out"/>
<feColorMatrix type="matrix" values="0 0 0 0 0 0 0 0 0 0 0 0 0 0 0 0 0 0 0.8 0"/>
<feBlend mode="normal" in2="effect2_dropShadow_503_1176" result="effect3_dropShadow_503_1176"/>
<feBlend mode="normal" in="SourceGraphic" in2="effect3_dropShadow_503_1176" result="shape"/>
</filter>
<linearGradient id="paint0_linear_503_1176" x1="237.555" y1="94.3022" x2="237.555" y2="754.302" gradientUnits="userSpaceOnUse">
<stop stop-color="#1A1213"/>
<stop offset="1" stop-color="#0D0708"/>
</linearGradient>
<linearGradient id="paint1_linear_503_1176" x1="238.065" y1="103.765" x2="238.065" y2="743.765" gradientUnits="userSpaceOnUse">
<stop stop-color="#1A0D09"/>
<stop offset="0.6" stop-color="#0A0506"/>
<stop offset="1" stop-color="#110806"/>
</linearGradient>
<radialGradient id="paint2_radial_503_1176" cx="0" cy="0" r="1" gradientUnits="userSpaceOnUse" gradientTransform="translate(298.064 615.765) scale(296.985 724.077)">
<stop stop-color="#8D1514" stop-opacity="0.45"/>
<stop offset="0.6" stop-color="#8D1514" stop-opacity="0"/>
</radialGradient>
<radialGradient id="paint3_radial_503_1176" cx="0" cy="0" r="1" gradientUnits="userSpaceOnUse" gradientTransform="translate(178.065 231.765) scale(296.985 724.077)">
<stop stop-color="#F8A20D" stop-opacity="0.28"/>
<stop offset="0.55" stop-color="#F8A20D" stop-opacity="0"/>
</radialGradient>
<linearGradient id="paint4_linear_503_1176" x1="143.662" y1="605.808" x2="143.662" y2="618.596" gradientUnits="userSpaceOnUse">
<stop stop-color="#F8A20D"/>
<stop offset="1" stop-color="#8D1514"/>
</linearGradient>
<linearGradient id="paint5_linear_503_1176" x1="147.588" y1="596.778" x2="147.588" y2="618.378" gradientUnits="userSpaceOnUse">
<stop stop-color="#F8A20D"/>
<stop offset="1" stop-color="#8D1514"/>
</linearGradient>
<linearGradient id="paint6_linear_503_1176" x1="151.473" y1="586.968" x2="151.473" y2="618.161" gradientUnits="userSpaceOnUse">
<stop stop-color="#F8A20D"/>
<stop offset="1" stop-color="#8D1514"/>
</linearGradient>
<linearGradient id="paint7_linear_503_1176" x1="156.529" y1="599.519" x2="156.529" y2="617.914" gradientUnits="userSpaceOnUse">
<stop stop-color="#F8A20D"/>
<stop offset="1" stop-color="#8D1514"/>
</linearGradient>
<linearGradient id="paint8_linear_503_1176" x1="160.581" y1="592.888" x2="160.581" y2="617.692" gradientUnits="userSpaceOnUse">
<stop stop-color="#F8A20D"/>
<stop offset="1" stop-color="#8D1514"/>
</linearGradient>
<linearGradient id="paint9_linear_503_1176" x1="164.425" y1="582.289" x2="164.425" y2="617.477" gradientUnits="userSpaceOnUse">
<stop stop-color="#F8A20D"/>
<stop offset="1" stop-color="#8D1514"/>
</linearGradient>
<linearGradient id="paint10_linear_503_1176" x1="169.816" y1="601.218" x2="169.816" y2="617.22" gradientUnits="userSpaceOnUse">
<stop stop-color="#F8A20D"/>
<stop offset="1" stop-color="#8D1514"/>
</linearGradient>
<linearGradient id="paint11_linear_503_1176" x1="173.822" y1="593.809" x2="173.822" y2="617.001" gradientUnits="userSpaceOnUse">
<stop stop-color="#F8A20D"/>
<stop offset="1" stop-color="#8D1514"/>
</linearGradient>
<linearGradient id="paint12_linear_503_1176" x1="177.906" y1="587.979" x2="177.906" y2="616.779" gradientUnits="userSpaceOnUse">
<stop stop-color="#F8A20D"/>
<stop offset="1" stop-color="#8D1514"/>
</linearGradient>
<linearGradient id="paint13_linear_503_1176" x1="183.079" y1="602.93" x2="183.079" y2="616.529" gradientUnits="userSpaceOnUse">
<stop stop-color="#F8A20D"/>
<stop offset="1" stop-color="#8D1514"/>
</linearGradient>
<linearGradient id="paint14_linear_503_1176" x1="187.169" y1="597.121" x2="187.169" y2="616.307" gradientUnits="userSpaceOnUse">
<stop stop-color="#F8A20D"/>
<stop offset="1" stop-color="#8D1514"/>
</linearGradient>
<linearGradient id="paint15_linear_503_1176" x1="190.844" y1="583.3" x2="190.844" y2="616.095" gradientUnits="userSpaceOnUse">
<stop stop-color="#F8A20D"/>
<stop offset="1" stop-color="#8D1514"/>
</linearGradient>
<linearGradient id="paint16_linear_503_1176" x1="195.608" y1="590.261" x2="195.608" y2="615.856" gradientUnits="userSpaceOnUse">
<stop stop-color="#F8A20D"/>
<stop offset="1" stop-color="#8D1514"/>
</linearGradient>
<linearGradient id="paint17_linear_503_1176" x1="200.582" y1="601.22" x2="200.582" y2="615.61" gradientUnits="userSpaceOnUse">
<stop stop-color="#F8A20D"/>
<stop offset="1" stop-color="#8D1514"/>
</linearGradient>
<linearGradient id="paint18_linear_503_1176" x1="204.592" y1="593.791" x2="204.592" y2="615.39" gradientUnits="userSpaceOnUse">
<stop stop-color="#F8A20D"/>
<stop offset="1" stop-color="#8D1514"/>
</linearGradient>
<linearGradient id="paint19_linear_503_1176" x1="208.226" y1="579.181" x2="208.226" y2="615.18" gradientUnits="userSpaceOnUse">
<stop stop-color="#F8A20D"/>
<stop offset="1" stop-color="#8D1514"/>
</linearGradient>
<linearGradient id="paint20_linear_503_1176" x1="213.618" y1="598.121" x2="213.618" y2="614.924" gradientUnits="userSpaceOnUse">
<stop stop-color="#F8A20D"/>
<stop offset="1" stop-color="#8D1514"/>
</linearGradient>
<linearGradient id="paint21_linear_503_1176" x1="217.628" y1="590.701" x2="217.628" y2="614.704" gradientUnits="userSpaceOnUse">
<stop stop-color="#F8A20D"/>
<stop offset="1" stop-color="#8D1514"/>
</linearGradient>
<linearGradient id="paint22_linear_503_1176" x1="221.723" y1="584.891" x2="221.723" y2="614.482" gradientUnits="userSpaceOnUse">
<stop stop-color="#F8A20D"/>
<stop offset="1" stop-color="#8D1514"/>
</linearGradient>
<linearGradient id="paint23_linear_503_1176" x1="226.864" y1="599.042" x2="226.864" y2="614.232" gradientUnits="userSpaceOnUse">
<stop stop-color="#F8A20D"/>
<stop offset="1" stop-color="#8D1514"/>
</linearGradient>
<linearGradient id="paint24_linear_503_1176" x1="230.957" y1="593.211" x2="230.957" y2="614.01" gradientUnits="userSpaceOnUse">
<stop stop-color="#F8A20D"/>
<stop offset="1" stop-color="#8D1514"/>
</linearGradient>
<linearGradient id="paint25_linear_503_1176" x1="234.758" y1="581.792" x2="234.758" y2="613.795" gradientUnits="userSpaceOnUse">
<stop stop-color="#F8A20D"/>
<stop offset="1" stop-color="#8D1514"/>
</linearGradient>
<linearGradient id="paint26_linear_503_1176" x1="239.852" y1="595.151" x2="239.852" y2="613.546" gradientUnits="userSpaceOnUse">
<stop stop-color="#F8A20D"/>
<stop offset="1" stop-color="#8D1514"/>
</linearGradient>
<linearGradient id="paint27_linear_503_1176" x1="243.857" y1="587.732" x2="243.857" y2="613.327" gradientUnits="userSpaceOnUse">
<stop stop-color="#F8A20D"/>
<stop offset="1" stop-color="#8D1514"/>
</linearGradient>
<linearGradient id="paint28_linear_503_1176" x1="247.737" y1="577.922" x2="247.737" y2="613.111" gradientUnits="userSpaceOnUse">
<stop stop-color="#F8A20D"/>
<stop offset="1" stop-color="#8D1514"/>
</linearGradient>
<linearGradient id="paint29_linear_503_1176" x1="253.333" y1="600.853" x2="253.333" y2="612.849" gradientUnits="userSpaceOnUse">
<stop stop-color="#F8A20D"/>
<stop offset="1" stop-color="#8D1514"/>
</linearGradient>
<linearGradient id="paint30_linear_503_1176" x1="257.171" y1="590.243" x2="257.171" y2="612.633" gradientUnits="userSpaceOnUse">
<stop stop-color="#F8A20D"/>
<stop offset="1" stop-color="#8D1514"/>
</linearGradient>
<linearGradient id="paint31_linear_503_1176" x1="261.218" y1="583.613" x2="261.218" y2="612.413" gradientUnits="userSpaceOnUse">
<stop stop-color="#F8A20D"/>
<stop offset="1" stop-color="#8D1514"/>
</linearGradient>
<linearGradient id="paint32_linear_503_1176" x1="266.229" y1="595.374" x2="266.229" y2="612.167" gradientUnits="userSpaceOnUse">
<stop stop-color="#F8A20D"/>
<stop offset="1" stop-color="#8D1514"/>
</linearGradient>
<linearGradient id="paint33_linear_503_1176" x1="270.109" y1="585.564" x2="270.109" y2="611.95" gradientUnits="userSpaceOnUse">
<stop stop-color="#F8A20D"/>
<stop offset="1" stop-color="#8D1514"/>
</linearGradient>
<linearGradient id="paint34_linear_503_1176" x1="274.114" y1="578.134" x2="274.114" y2="611.73" gradientUnits="userSpaceOnUse">
<stop stop-color="#F8A20D"/>
<stop offset="1" stop-color="#8D1514"/>
</linearGradient>
<linearGradient id="paint35_linear_503_1176" x1="279.454" y1="596.285" x2="279.454" y2="611.476" gradientUnits="userSpaceOnUse">
<stop stop-color="#F8A20D"/>
<stop offset="1" stop-color="#8D1514"/>
</linearGradient>
<linearGradient id="paint36_linear_503_1176" x1="283.585" y1="591.256" x2="283.585" y2="611.253" gradientUnits="userSpaceOnUse">
<stop stop-color="#F8A20D"/>
<stop offset="1" stop-color="#8D1514"/>
</linearGradient>
<linearGradient id="paint37_linear_503_1176" x1="287.428" y1="580.646" x2="287.428" y2="611.037" gradientUnits="userSpaceOnUse">
<stop stop-color="#F8A20D"/>
<stop offset="1" stop-color="#8D1514"/>
</linearGradient>
<linearGradient id="paint38_linear_503_1176" x1="292.15" y1="586.806" x2="292.15" y2="610.798" gradientUnits="userSpaceOnUse">
<stop stop-color="#F8A20D"/>
<stop offset="1" stop-color="#8D1514"/>
</linearGradient>
<linearGradient id="paint39_linear_503_1176" x1="297.077" y1="596.965" x2="297.077" y2="610.554" gradientUnits="userSpaceOnUse">
<stop stop-color="#F8A20D"/>
<stop offset="1" stop-color="#8D1514"/>
</linearGradient>
<linearGradient id="paint40_linear_503_1176" x1="300.958" y1="587.156" x2="300.958" y2="610.338" gradientUnits="userSpaceOnUse">
<stop stop-color="#F8A20D"/>
<stop offset="1" stop-color="#8D1514"/>
</linearGradient>
<linearGradient id="paint41_linear_503_1176" x1="304.759" y1="575.736" x2="304.759" y2="610.123" gradientUnits="userSpaceOnUse">
<stop stop-color="#F8A20D"/>
<stop offset="1" stop-color="#8D1514"/>
</linearGradient>
<linearGradient id="paint42_linear_503_1176" x1="310.025" y1="592.276" x2="310.025" y2="609.87" gradientUnits="userSpaceOnUse">
<stop stop-color="#F8A20D"/>
<stop offset="1" stop-color="#8D1514"/>
</linearGradient>
<linearGradient id="paint43_linear_503_1176" x1="314.035" y1="584.856" x2="314.035" y2="609.65" gradientUnits="userSpaceOnUse">
<stop stop-color="#F8A20D"/>
<stop offset="1" stop-color="#8D1514"/>
</linearGradient>
<linearGradient id="paint44_linear_503_1176" x1="318.088" y1="578.247" x2="318.088" y2="609.429" gradientUnits="userSpaceOnUse">
<stop stop-color="#F8A20D"/>
<stop offset="1" stop-color="#8D1514"/>
</linearGradient>
<linearGradient id="paint45_linear_503_1176" x1="323.354" y1="594.786" x2="323.354" y2="609.176" gradientUnits="userSpaceOnUse">
<stop stop-color="#F8A20D"/>
<stop offset="1" stop-color="#8D1514"/>
</linearGradient>
<linearGradient id="paint46_linear_503_1176" x1="327.365" y1="587.367" x2="327.365" y2="608.956" gradientUnits="userSpaceOnUse">
<stop stop-color="#F8A20D"/>
<stop offset="1" stop-color="#8D1514"/>
</linearGradient>
<linearGradient id="paint47_linear_503_1176" x1="331.417" y1="580.736" x2="331.417" y2="608.735" gradientUnits="userSpaceOnUse">
<stop stop-color="#F8A20D"/>
<stop offset="1" stop-color="#8D1514"/>
</linearGradient>
<linearGradient id="paint48_linear_503_1176" x1="336.26" y1="589.307" x2="336.26" y2="608.493" gradientUnits="userSpaceOnUse">
<stop stop-color="#F8A20D"/>
<stop offset="1" stop-color="#8D1514"/>
</linearGradient>
<linearGradient id="paint49_linear_503_1176" x1="339.93" y1="575.488" x2="339.93" y2="608.282" gradientUnits="userSpaceOnUse">
<stop stop-color="#F8A20D"/>
<stop offset="1" stop-color="#8D1514"/>
</linearGradient>
<linearGradient id="paint50_linear_503_1176" x1="345.364" y1="595.237" x2="345.364" y2="608.025" gradientUnits="userSpaceOnUse">
<stop stop-color="#F8A20D"/>
<stop offset="1" stop-color="#8D1514"/>
</linearGradient>
<linearGradient id="paint51_linear_503_1176" x1="349.081" y1="582.217" x2="349.081" y2="607.812" gradientUnits="userSpaceOnUse">
<stop stop-color="#F8A20D"/>
<stop offset="1" stop-color="#8D1514"/>
</linearGradient>
<linearGradient id="paint52_linear_503_1176" x1="353.761" y1="587.567" x2="353.761" y2="607.575" gradientUnits="userSpaceOnUse">
<stop stop-color="#F8A20D"/>
<stop offset="1" stop-color="#8D1514"/>
</linearGradient>
<linearGradient id="paint53_linear_503_1176" x1="357.646" y1="577.757" x2="357.646" y2="607.358" gradientUnits="userSpaceOnUse">
<stop stop-color="#F8A20D"/>
<stop offset="1" stop-color="#8D1514"/>
</linearGradient>
<linearGradient id="paint54_linear_503_1176" x1="362.745" y1="591.107" x2="362.745" y2="607.109" gradientUnits="userSpaceOnUse">
<stop stop-color="#F8A20D"/>
<stop offset="1" stop-color="#8D1514"/>
</linearGradient>
<linearGradient id="paint55_linear_503_1176" x1="366.756" y1="583.698" x2="366.756" y2="606.889" gradientUnits="userSpaceOnUse">
<stop stop-color="#F8A20D"/>
<stop offset="1" stop-color="#8D1514"/>
</linearGradient>
<linearGradient id="paint56_linear_503_1176" x1="370.511" y1="571.488" x2="370.511" y2="606.676" gradientUnits="userSpaceOnUse">
<stop stop-color="#F8A20D"/>
<stop offset="1" stop-color="#8D1514"/>
</linearGradient>
<linearGradient id="paint57_linear_503_1176" x1="375.772" y1="588.028" x2="375.772" y2="606.423" gradientUnits="userSpaceOnUse">
<stop stop-color="#F8A20D"/>
<stop offset="1" stop-color="#8D1514"/>
</linearGradient>
<linearGradient id="paint58_linear_503_1176" x1="379.74" y1="579.808" x2="379.74" y2="606.205" gradientUnits="userSpaceOnUse">
<stop stop-color="#F8A20D"/>
<stop offset="1" stop-color="#8D1514"/>
</linearGradient>
<linearGradient id="paint59_linear_503_1176" x1="384.709" y1="590.769" x2="384.709" y2="605.96" gradientUnits="userSpaceOnUse">
<stop stop-color="#F8A20D"/>
<stop offset="1" stop-color="#8D1514"/>
</linearGradient>
<clipPath id="clip0_503_1176">
<rect x="88.0645" y="103.765" width="300" height="640" rx="38" transform="rotate(-3 88.0645 103.765)" fill="white"/>
</clipPath>
<clipPath id="clip1_503_1176">
<rect width="63.9977" height="63.9977" fill="white" transform="translate(220.975 385.195) rotate(-3)"/>
</clipPath>
<clipPath id="clip2_503_1176">
<rect width="63.9977" height="63.9977" fill="white" transform="translate(220.975 385.195) rotate(-3)"/>
</clipPath>
<clipPath id="clip3_503_1176">
<rect width="14" height="14" fill="white" transform="translate(302.682 110.039) rotate(-3)"/>
</clipPath>
<clipPath id="clip4_503_1176">
<rect width="14" height="14" fill="white" transform="translate(322.655 108.992) rotate(-3)"/>
</clipPath>
<clipPath id="clip5_503_1176">
<rect width="14" height="14" fill="white" transform="translate(322.655 108.992) rotate(-3)"/>
</clipPath>
<clipPath id="clip6_503_1176">
<rect width="18.0046" height="14.0035" fill="white" transform="translate(342.628 107.944) rotate(-3)"/>
</clipPath>
</defs>
</svg>
