<svg width="552" height="442" viewBox="0 0 552 442" fill="none" xmlns="http://www.w3.org/2000/svg">
<rect width="552" height="441.594" fill="#110A0C"/>
<rect x="0.5" y="0.5" width="551" height="440.594" stroke="#F5EEDE" stroke-opacity="0.12"/>
<g clip-path="url(#clip0_503_1550)">
<path d="M550.746 1H1.25378V440.594H550.746V1Z" fill="url(#paint0_radial_503_1550)"/>
<g opacity="0.7">
<path d="M67.1929 220.797L177.091 110.898" stroke="#F8A20D" stroke-width="1.09898"/>
<path d="M67.1929 220.797H177.091" stroke="#F8A20D" stroke-width="1.09898"/>
<path d="M67.1929 220.797L177.091 330.695" stroke="#F8A20D" stroke-width="1.09898"/>
<path d="M177.091 110.898L286.99 66.9391" stroke="#F8A20D" stroke-width="1.09898"/>
<path d="M177.091 110.898L286.99 143.868" stroke="#F8A20D" stroke-width="1.09898"/>
<path d="M177.091 220.797L286.99 198.817" stroke="#F8A20D" stroke-width="1.09898"/>
<path d="M177.091 220.797L286.99 242.777" stroke="#F8A20D" stroke-width="1.09898"/>
<path d="M177.091 330.695L286.99 308.716" stroke="#F8A20D" stroke-width="1.09898"/>
<path d="M177.091 330.695L286.99 374.655" stroke="#F8A20D" stroke-width="1.09898"/>
<path d="M286.99 66.939L396.888 44.9594" stroke="#F8A20D" stroke-width="1.09898"/>
<path d="M286.99 143.868L396.888 121.888" stroke="#F8A20D" stroke-width="1.09898"/>
<path d="M286.99 143.868L396.888 165.848" stroke="#F8A20D" stroke-width="1.09898"/>
<path d="M286.99 198.817L396.888 187.827" stroke="#F8A20D" stroke-width="1.09898"/>
<path d="M286.99 242.777L396.888 253.766" stroke="#F8A20D" stroke-width="1.09898"/>
<path d="M286.99 308.716L396.888 286.736" stroke="#F8A20D" stroke-width="1.09898"/>
<path d="M286.99 374.655L396.888 363.665" stroke="#F8A20D" stroke-width="1.09898"/>
<path d="M396.888 121.888L495.797 110.898" stroke="#8D1514" stroke-width="1.09898"/>
<path d="M396.888 253.766L495.797 242.777" stroke="#8D1514" stroke-width="1.09898"/>
</g>
<path d="M67.1929 230.688C72.6554 230.688 77.0837 226.26 77.0837 220.797C77.0837 215.334 72.6554 210.906 67.1929 210.906C61.7303 210.906 57.302 215.334 57.302 220.797C57.302 226.26 61.7303 230.688 67.1929 230.688Z" fill="#090506" stroke="#F8A20D" stroke-width="1.53858"/>
<path d="M177.091 117.492C180.733 117.492 183.685 114.54 183.685 110.898C183.685 107.257 180.733 104.305 177.091 104.305C173.45 104.305 170.497 107.257 170.497 110.898C170.497 114.54 173.45 117.492 177.091 117.492Z" fill="#090506" stroke="#F8A20D" stroke-width="1.53858"/>
<path d="M177.091 227.391C180.733 227.391 183.685 224.439 183.685 220.797C183.685 217.155 180.733 214.203 177.091 214.203C173.45 214.203 170.497 217.155 170.497 220.797C170.497 224.439 173.45 227.391 177.091 227.391Z" fill="#090506" stroke="#F8A20D" stroke-width="1.53858"/>
<path d="M177.091 337.289C180.733 337.289 183.685 334.337 183.685 330.695C183.685 327.054 180.733 324.102 177.091 324.102C173.45 324.102 170.497 327.054 170.497 330.695C170.497 334.337 173.45 337.289 177.091 337.289Z" fill="#090506" stroke="#F8A20D" stroke-width="1.53858"/>
<path d="M286.99 72.4341C290.025 72.4341 292.485 69.9739 292.485 66.9391C292.485 63.9044 290.025 61.4442 286.99 61.4442C283.955 61.4442 281.495 63.9044 281.495 66.9391C281.495 69.9739 283.955 72.4341 286.99 72.4341Z" fill="#090506" stroke="#F8A20D" stroke-width="1.53858"/>
<path d="M286.99 149.363C290.025 149.363 292.485 146.903 292.485 143.868C292.485 140.833 290.025 138.373 286.99 138.373C283.955 138.373 281.495 140.833 281.495 143.868C281.495 146.903 283.955 149.363 286.99 149.363Z" fill="#090506" stroke="#F8A20D" stroke-width="1.53858"/>
<path d="M286.99 204.312C290.025 204.312 292.485 201.852 292.485 198.817C292.485 195.783 290.025 193.322 286.99 193.322C283.955 193.322 281.495 195.783 281.495 198.817C281.495 201.852 283.955 204.312 286.99 204.312Z" fill="#090506" stroke="#F8A20D" stroke-width="1.53858"/>
<path d="M286.99 248.272C290.025 248.272 292.485 245.811 292.485 242.777C292.485 239.742 290.025 237.282 286.99 237.282C283.955 237.282 281.495 239.742 281.495 242.777C281.495 245.811 283.955 248.272 286.99 248.272Z" fill="#090506" stroke="#F8A20D" stroke-width="1.53858"/>
<path d="M286.99 314.211C290.025 314.211 292.485 311.751 292.485 308.716C292.485 305.681 290.025 303.221 286.99 303.221C283.955 303.221 281.495 305.681 281.495 308.716C281.495 311.751 283.955 314.211 286.99 314.211Z" fill="#090506" stroke="#F8A20D" stroke-width="1.53858"/>
<path d="M286.99 380.15C290.025 380.15 292.485 377.69 292.485 374.655C292.485 371.62 290.025 369.16 286.99 369.16C283.955 369.16 281.495 371.62 281.495 374.655C281.495 377.69 283.955 380.15 286.99 380.15Z" fill="#090506" stroke="#F8A20D" stroke-width="1.53858"/>
<path d="M396.888 49.3554C399.316 49.3554 401.284 47.3872 401.284 44.9594C401.284 42.5316 399.316 40.5635 396.888 40.5635C394.461 40.5635 392.492 42.5316 392.492 44.9594C392.492 47.3872 394.461 49.3554 396.888 49.3554Z" fill="#090506" stroke="#F8A20D" stroke-width="1.53858"/>
<path d="M396.888 126.284C399.316 126.284 401.284 124.316 401.284 121.888C401.284 119.461 399.316 117.492 396.888 117.492C394.461 117.492 392.492 119.461 392.492 121.888C392.492 124.316 394.461 126.284 396.888 126.284Z" fill="#090506" stroke="#F8A20D" stroke-width="1.53858"/>
<path d="M396.888 170.244C399.316 170.244 401.284 168.276 401.284 165.848C401.284 163.42 399.316 161.452 396.888 161.452C394.461 161.452 392.492 163.42 392.492 165.848C392.492 168.276 394.461 170.244 396.888 170.244Z" fill="#090506" stroke="#F8A20D" stroke-width="1.53858"/>
<path d="M396.888 192.223C399.316 192.223 401.284 190.255 401.284 187.827C401.284 185.4 399.316 183.432 396.888 183.432C394.461 183.432 392.492 185.4 392.492 187.827C392.492 190.255 394.461 192.223 396.888 192.223Z" fill="#090506" stroke="#F8A20D" stroke-width="1.53858"/>
<path d="M396.888 258.162C399.316 258.162 401.284 256.194 401.284 253.767C401.284 251.339 399.316 249.371 396.888 249.371C394.461 249.371 392.492 251.339 392.492 253.767C392.492 256.194 394.461 258.162 396.888 258.162Z" fill="#090506" stroke="#F8A20D" stroke-width="1.53858"/>
<path d="M396.888 291.132C399.316 291.132 401.284 289.164 401.284 286.736C401.284 284.308 399.316 282.34 396.888 282.34C394.461 282.34 392.492 284.308 392.492 286.736C392.492 289.164 394.461 291.132 396.888 291.132Z" fill="#090506" stroke="#F8A20D" stroke-width="1.53858"/>
<path d="M396.888 368.061C399.316 368.061 401.284 366.093 401.284 363.665C401.284 361.237 399.316 359.269 396.888 359.269C394.461 359.269 392.492 361.237 392.492 363.665C392.492 366.093 394.461 368.061 396.888 368.061Z" fill="#090506" stroke="#F8A20D" stroke-width="1.53858"/>
<path d="M495.797 118.591C500.046 118.591 503.49 115.147 503.49 110.898C503.49 106.65 500.046 103.206 495.797 103.206C491.548 103.206 488.104 106.65 488.104 110.898C488.104 115.147 491.548 118.591 495.797 118.591Z" fill="#8D1514"/>
<path d="M495.797 250.47C500.046 250.47 503.49 247.025 503.49 242.777C503.49 238.528 500.046 235.084 495.797 235.084C491.548 235.084 488.104 238.528 488.104 242.777C488.104 247.025 491.548 250.47 495.797 250.47Z" fill="#8D1514"/>
<path d="M45.4941 196.429H46.6025L48.8192 200.16H48.9128L51.1295 196.429H52.2379L49.3499 201.128V204.421H48.3821V201.128L45.4941 196.429ZM59.8578 200.425C59.8578 201.268 59.7056 201.997 59.4012 202.611C59.0968 203.225 58.6792 203.698 58.1485 204.031C57.6177 204.364 57.0115 204.531 56.3298 204.531C55.6482 204.531 55.0419 204.364 54.5112 204.031C53.9804 203.698 53.5628 203.225 53.2584 202.611C52.954 201.997 52.8018 201.268 52.8018 200.425C52.8018 199.582 52.954 198.854 53.2584 198.24C53.5628 197.626 53.9804 197.152 54.5112 196.819C55.0419 196.486 55.6482 196.319 56.3298 196.319C57.0115 196.319 57.6177 196.486 58.1485 196.819C58.6792 197.152 59.0968 197.626 59.4012 198.24C59.7056 198.854 59.8578 199.582 59.8578 200.425ZM58.9212 200.425C58.9212 199.733 58.8054 199.149 58.5738 198.673C58.3449 198.197 58.034 197.836 57.6411 197.592C57.2508 197.347 56.8137 197.225 56.3298 197.225C55.8459 197.225 55.4075 197.347 55.0146 197.592C54.6244 197.836 54.3135 198.197 54.0819 198.673C53.8529 199.149 53.7385 199.733 53.7385 200.425C53.7385 201.117 53.8529 201.701 54.0819 202.177C54.3135 202.653 54.6244 203.014 55.0146 203.258C55.4075 203.503 55.8459 203.625 56.3298 203.625C56.8137 203.625 57.2508 203.503 57.6411 203.258C58.034 203.014 58.3449 202.653 58.5738 202.177C58.8054 201.701 58.9212 201.117 58.9212 200.425ZM66.7304 196.429H67.6982V201.721C67.6982 202.267 67.5694 202.755 67.3119 203.184C67.0569 203.611 66.6965 203.948 66.2308 204.195C65.7651 204.44 65.2187 204.562 64.5917 204.562C63.9647 204.562 63.4183 204.44 62.9526 204.195C62.4869 203.948 62.1252 203.611 61.8677 203.184C61.6127 202.755 61.4852 202.267 61.4852 201.721V196.429H62.4531V201.643C62.4531 202.033 62.5389 202.38 62.7106 202.685C62.8824 202.987 63.1269 203.225 63.4443 203.399C63.7644 203.571 64.1468 203.656 64.5917 203.656C65.0366 203.656 65.4191 203.571 65.7391 203.399C66.0591 203.225 66.3037 202.987 66.4728 202.685C66.6445 202.38 66.7304 202.033 66.7304 201.643V196.429Z" fill="#F5EEDE"/>
<path d="M492.344 86.3305C492.297 85.935 492.107 85.628 491.774 85.4095C491.441 85.1909 491.033 85.0816 490.549 85.0816C490.195 85.0816 489.885 85.1389 489.62 85.2534C489.357 85.3678 489.152 85.5252 489.003 85.7256C488.858 85.9259 488.785 86.1536 488.785 86.4085C488.785 86.6219 488.835 86.8053 488.937 86.9588C489.041 87.1097 489.174 87.2359 489.335 87.3374C489.496 87.4362 489.665 87.5182 489.842 87.5832C490.019 87.6457 490.182 87.6964 490.33 87.7354L491.142 87.954C491.35 88.0086 491.582 88.0841 491.837 88.1803C492.094 88.2766 492.34 88.408 492.574 88.5745C492.811 88.7384 493.006 88.9492 493.16 89.2067C493.313 89.4643 493.39 89.7804 493.39 90.1551C493.39 90.587 493.277 90.9772 493.05 91.3259C492.827 91.6745 492.499 91.9516 492.067 92.1571C491.638 92.3627 491.116 92.4654 490.502 92.4654C489.929 92.4654 489.434 92.3731 489.015 92.1884C488.599 92.0036 488.271 91.7461 488.031 91.4156C487.795 91.0852 487.661 90.7015 487.629 90.2644H488.629C488.655 90.5662 488.756 90.8159 488.933 91.0137C489.112 91.2088 489.339 91.3545 489.612 91.4508C489.888 91.5444 490.184 91.5913 490.502 91.5913C490.871 91.5913 491.203 91.5314 491.497 91.4117C491.791 91.2894 492.024 91.1203 492.196 90.9044C492.367 90.6858 492.453 90.4309 492.453 90.1395C492.453 89.8741 492.379 89.6581 492.231 89.4916C492.082 89.3251 491.887 89.1898 491.645 89.0858C491.403 88.9817 491.142 88.8906 490.861 88.8126L489.877 88.5316C489.253 88.3521 488.759 88.0958 488.394 87.7628C488.03 87.4297 487.848 86.9939 487.848 86.4554C487.848 86.0079 487.969 85.6176 488.211 85.2846C488.456 84.949 488.783 84.6888 489.194 84.504C489.608 84.3167 490.07 84.2231 490.58 84.2231C491.095 84.2231 491.553 84.3154 491.954 84.5001C492.354 84.6823 492.672 84.932 492.906 85.2495C493.143 85.5669 493.268 85.9272 493.281 86.3305H492.344ZM494.544 85.1909V84.3323H500.538V85.1909H498.025V92.325H497.057V85.1909H494.544ZM501.345 84.3323H502.454L504.67 88.0633H504.764L506.981 84.3323H508.089L505.201 89.0311V92.325H504.233V89.0311L501.345 84.3323ZM509.341 92.325V84.3323H510.309V91.4664H514.024V92.325H509.341ZM515.523 92.325V84.3323H520.346V85.1909H516.491V87.8915H520.097V88.7501H516.491V91.4664H520.409V92.325H515.523Z" fill="#F5EEDE"/>
<path d="M488.301 260.17L490.674 266.898H490.767L493.14 260.17H494.155L491.22 268.163H490.221L487.286 260.17H488.301ZM501.768 264.166C501.768 265.009 501.616 265.738 501.311 266.352C501.007 266.966 500.589 267.439 500.058 267.772C499.528 268.105 498.921 268.272 498.24 268.272C497.558 268.272 496.952 268.105 496.421 267.772C495.89 267.439 495.473 266.966 495.168 266.352C494.864 265.738 494.712 265.009 494.712 264.166C494.712 263.323 494.864 262.595 495.168 261.981C495.473 261.367 495.89 260.893 496.421 260.56C496.952 260.227 497.558 260.061 498.24 260.061C498.921 260.061 499.528 260.227 500.058 260.56C500.589 260.893 501.007 261.367 501.311 261.981C501.616 262.595 501.768 263.323 501.768 264.166ZM500.831 264.166C500.831 263.474 500.715 262.89 500.484 262.414C500.255 261.938 499.944 261.578 499.551 261.333C499.161 261.088 498.724 260.966 498.24 260.966C497.756 260.966 497.317 261.088 496.925 261.333C496.534 261.578 496.223 261.938 495.992 262.414C495.763 262.89 495.648 263.474 495.648 264.166C495.648 264.858 495.763 265.442 495.992 265.919C496.223 266.395 496.534 266.755 496.925 267C497.317 267.244 497.756 267.366 498.24 267.366C498.724 267.366 499.161 267.244 499.551 267C499.944 266.755 500.255 266.395 500.484 265.919C500.715 265.442 500.831 264.858 500.831 264.166ZM504.363 260.17V268.163H503.395V260.17H504.363ZM512.735 262.668H511.767C511.71 262.389 511.61 262.145 511.467 261.934C511.326 261.723 511.155 261.546 510.952 261.403C510.751 261.258 510.529 261.148 510.284 261.075C510.04 261.003 509.785 260.966 509.519 260.966C509.035 260.966 508.597 261.088 508.204 261.333C507.814 261.578 507.503 261.938 507.272 262.414C507.043 262.89 506.928 263.474 506.928 264.166C506.928 264.858 507.043 265.442 507.272 265.919C507.503 266.395 507.814 266.755 508.204 267C508.597 267.244 509.035 267.366 509.519 267.366C509.785 267.366 510.04 267.33 510.284 267.257C510.529 267.184 510.751 267.076 510.952 266.933C511.155 266.788 511.326 266.609 511.467 266.399C511.61 266.185 511.71 265.941 511.767 265.665H512.735C512.662 266.073 512.53 266.439 512.337 266.762C512.145 267.084 511.905 267.359 511.619 267.585C511.333 267.809 511.012 267.979 510.655 268.096C510.301 268.213 509.923 268.272 509.519 268.272C508.838 268.272 508.232 268.105 507.701 267.772C507.17 267.439 506.752 266.966 506.448 266.352C506.144 265.738 505.991 265.009 505.991 264.166C505.991 263.323 506.144 262.595 506.448 261.981C506.752 261.367 507.17 260.893 507.701 260.56C508.232 260.227 508.838 260.061 509.519 260.061C509.923 260.061 510.301 260.119 510.655 260.236C511.012 260.353 511.333 260.525 511.619 260.751C511.905 260.975 512.145 261.248 512.337 261.571C512.53 261.891 512.662 262.257 512.735 262.668ZM514.299 268.163V260.17H519.123V261.029H515.267V263.729H518.873V264.588H515.267V267.304H519.185V268.163H514.299Z" fill="#F5EEDE"/>
<path d="M18.8375 40.5634V18.5837H40.8172" stroke="#F8A20D" stroke-width="1.64848"/>
<path d="M533.162 40.5634V18.5837H511.183" stroke="#F8A20D" stroke-width="1.64848"/>
<path d="M18.8375 401.031V423.01H40.8172" stroke="#F8A20D" stroke-width="1.64848"/>
<path d="M533.162 401.031V423.01H511.183" stroke="#F8A20D" stroke-width="1.64848"/>
</g>
<g clip-path="url(#clip1_503_1550)">
<g clip-path="url(#clip2_503_1550)">
<path d="M509 59.3125C518.009 59.3125 525.312 52.0091 525.312 43C525.312 33.9909 518.009 26.6875 509 26.6875C499.991 26.6875 492.688 33.9909 492.688 43C492.688 52.0091 499.991 59.3125 509 59.3125Z" stroke="#F8A20D" stroke-width="1.575"/>
<path d="M509 53.125C514.592 53.125 519.125 48.5919 519.125 43C519.125 37.4081 514.592 32.875 509 32.875C503.408 32.875 498.875 37.4081 498.875 43C498.875 48.5919 503.408 53.125 509 53.125Z" stroke="#F8A20D" stroke-width="1.125"/>
<path d="M509 46.6C510.988 46.6 512.6 44.9882 512.6 43C512.6 41.0118 510.988 39.4 509 39.4C507.012 39.4 505.4 41.0118 505.4 43C505.4 44.9882 507.012 46.6 509 46.6Z" fill="#8D1514"/>
<path opacity="0.9" d="M507.425 42.325C507.922 42.325 508.325 41.9221 508.325 41.425C508.325 40.928 507.922 40.525 507.425 40.525C506.928 40.525 506.525 40.928 506.525 41.425C506.525 41.9221 506.928 42.325 507.425 42.325Z" fill="#F5EEDE"/>
<path d="M509 25.5625V28.9375" stroke="#F8A20D" stroke-width="1.125"/>
<path d="M509 57.0625V60.4375" stroke="#F8A20D" stroke-width="1.125"/>
<path d="M491.562 43H494.938" stroke="#F8A20D" stroke-width="1.125"/>
<path d="M523.062 43H526.438" stroke="#F8A20D" stroke-width="1.125"/>
</g>
</g>
<defs>
<radialGradient id="paint0_radial_503_1550" cx="0" cy="0" r="1" gradientUnits="userSpaceOnUse" gradientTransform="translate(111.152 352.675) scale(439.594 351.675)">
<stop stop-color="#F8A20D" stop-opacity="0.18"/>
<stop offset="0.6" stop-color="#090506" stop-opacity="0"/>
</radialGradient>
<clipPath id="clip0_503_1550">
<rect width="550" height="439.594" fill="white" transform="translate(1 1)"/>
</clipPath>
<clipPath id="clip1_503_1550">
<rect width="36" height="36" fill="white" transform="translate(491 25)"/>
</clipPath>
<clipPath id="clip2_503_1550">
<rect width="36" height="36" fill="white" transform="translate(491 25)"/>
</clipPath>
</defs>
</svg>
