<svg width="552" height="442" viewBox="0 0 552 442" fill="none" xmlns="http://www.w3.org/2000/svg">
<rect width="552" height="441.594" fill="#110A0C"/>
<rect x="0.5" y="0.5" width="551" height="440.594" stroke="#F5EEDE" stroke-opacity="0.12"/>
<g clip-path="url(#clip0_503_1489)">
<path d="M550.746 1H1.25375V440.594H550.746V1Z" fill="url(#paint0_linear_503_1489)"/>
<g opacity="0.35">
<path d="M1.25375 55.9492H550.746" stroke="#F8A20D" stroke-width="0.659391"/>
<path d="M1.25375 132.878H550.746" stroke="#F8A20D" stroke-width="0.659391"/>
<path d="M1.25375 220.797H550.746" stroke="#F8A20D" stroke-width="0.659391"/>
<path d="M1.25375 308.716H550.746" stroke="#F8A20D" stroke-width="0.659391"/>
<path d="M1.25375 385.645H550.746" stroke="#F8A20D" stroke-width="0.659391"/>
<path d="M89.1725 1V440.594" stroke="#F8A20D" stroke-width="0.659391"/>
<path d="M199.071 1V440.594" stroke="#F8A20D" stroke-width="0.659391"/>
<path d="M308.97 1V440.594" stroke="#F8A20D" stroke-width="0.659391"/>
<path d="M418.868 1V440.594" stroke="#F8A20D" stroke-width="0.659391"/>
</g>
<path d="M82.5786 264.756H67.1929V352.675H82.5786V264.756Z" fill="#F8A20D"/>
<path d="M126.538 198.817H111.152V352.675H126.538V198.817Z" fill="#F8A20D"/>
<path d="M170.497 242.777H155.112V352.675H170.497V242.777Z" fill="#F8A20D"/>
<path d="M214.457 154.858H199.071V352.675H214.457V154.858Z" fill="#F8A20D"/>
<path d="M258.416 220.797H243.03V352.675H258.416V220.797Z" fill="#F8A20D"/>
<path d="M302.376 110.898H286.99V352.675H302.376V110.898Z" fill="#8D1514"/>
<path d="M346.335 176.838H330.949V352.675H346.335V176.838Z" fill="#F8A20D"/>
<path d="M390.294 220.797H374.909V352.675H390.294V220.797Z" fill="#F8A20D"/>
<path d="M434.254 132.878H418.868V352.675H434.254V132.878Z" fill="#F8A20D"/>
<path d="M478.213 242.777H462.827V352.675H478.213V242.777Z" fill="#F8A20D"/>
<path d="M45.2132 352.675H495.797" stroke="#F5EEDE" stroke-width="1.09898"/>
<path d="M49.2485 57.6463L46.4152 68.1726H45.4879L48.3212 57.6463H49.2485ZM53.5575 57.6463L50.7242 68.1726H49.7969L52.6302 57.6463H53.5575ZM58.6564 66.8503H57.5403L60.7685 58.0585H61.8675L65.0958 66.8503H63.9796L61.3524 59.4494H61.2837L58.6564 66.8503ZM59.0685 63.416H63.5675V64.3605H59.0685V63.416ZM72.2349 58.0585H73.2995V63.8796C73.2995 64.4807 73.1579 65.0173 72.8745 65.4895C72.5941 65.9588 72.1977 66.3295 71.6854 66.6014C71.1731 66.8704 70.5721 67.0049 69.8824 67.0049C69.1926 67.0049 68.5916 66.8704 68.0794 66.6014C67.5671 66.3295 67.1693 65.9588 66.8859 65.4895C66.6055 65.0173 66.4652 64.4807 66.4652 63.8796V58.0585H67.5299V63.7938C67.5299 64.2231 67.6243 64.6051 67.8132 64.94C68.0021 65.272 68.2711 65.5338 68.6203 65.7256C68.9723 65.9145 69.393 66.0089 69.8824 66.0089C70.3718 66.0089 70.7925 65.9145 71.1445 65.7256C71.4965 65.5338 71.7655 65.272 71.9516 64.94C72.1404 64.6051 72.2349 64.2231 72.2349 63.7938V58.0585ZM74.9448 59.0029V58.0585H81.5387V59.0029H78.7741V66.8503H77.7094V59.0029H74.9448ZM90.234 62.4544C90.234 63.3817 90.0666 64.183 89.7317 64.8584C89.3969 65.5338 88.9375 66.0547 88.3537 66.4211C87.7699 66.7874 87.103 66.9705 86.3532 66.9705C85.6034 66.9705 84.9365 66.7874 84.3527 66.4211C83.7689 66.0547 83.3095 65.5338 82.9747 64.8584C82.6398 64.183 82.4724 63.3817 82.4724 62.4544C82.4724 61.5271 82.6398 60.7258 82.9747 60.0504C83.3095 59.375 83.7689 58.8541 84.3527 58.4878C84.9365 58.1214 85.6034 57.9383 86.3532 57.9383C87.103 57.9383 87.7699 58.1214 88.3537 58.4878C88.9375 58.8541 89.3969 59.375 89.7317 60.0504C90.0666 60.7258 90.234 61.5271 90.234 62.4544ZM89.2037 62.4544C89.2037 61.6931 89.0763 61.0506 88.8216 60.5269C88.5698 60.0032 88.2278 59.6068 87.7956 59.3377C87.3663 59.0687 86.8855 58.9342 86.3532 58.9342C85.8209 58.9342 85.3386 59.0687 84.9065 59.3377C84.4772 59.6068 84.1352 60.0032 83.8805 60.5269C83.6286 61.0506 83.5027 61.6931 83.5027 62.4544C83.5027 63.2157 83.6286 63.8582 83.8805 64.3819C84.1352 64.9057 84.4772 65.302 84.9065 65.5711C85.3386 65.8401 85.8209 65.9746 86.3532 65.9746C86.8855 65.9746 87.3663 65.8401 87.7956 65.5711C88.2278 65.302 88.5698 64.9057 88.8216 64.3819C89.0763 63.8582 89.2037 63.2157 89.2037 62.4544ZM95.6645 61.9822V62.9266H91.8181V61.9822H95.6645ZM97.5845 58.0585H98.8552L101.843 65.3564H101.946L104.934 58.0585H106.205V66.8503H105.209V60.1706H105.123L102.375 66.8503H101.414L98.6663 60.1706H98.5805V66.8503H97.5845V58.0585ZM108.7 66.8503H107.584L110.812 58.0585H111.911L115.139 66.8503H114.023L111.396 59.4494H111.327L108.7 66.8503ZM109.112 63.416H113.611V64.3605H109.112V63.416ZM121.317 60.2564C121.265 59.8214 121.056 59.4837 120.69 59.2433C120.324 59.0029 119.874 58.8827 119.342 58.8827C118.953 58.8827 118.612 58.9457 118.32 59.0716C118.031 59.1975 117.805 59.3707 117.642 59.591C117.482 59.8114 117.402 60.0618 117.402 60.3423C117.402 60.577 117.457 60.7787 117.569 60.9476C117.684 61.1136 117.83 61.2524 118.007 61.364C118.184 61.4728 118.37 61.5629 118.565 61.6345C118.76 61.7031 118.939 61.759 119.102 61.8019L119.995 62.0423C120.224 62.1024 120.478 62.1854 120.759 62.2913C121.042 62.3972 121.313 62.5417 121.57 62.7249C121.831 62.9052 122.045 63.137 122.214 63.4203C122.383 63.7036 122.467 64.0514 122.467 64.4635C122.467 64.9386 122.343 65.3679 122.094 65.7514C121.848 66.1349 121.487 66.4397 121.012 66.6657C120.54 66.8918 119.966 67.0049 119.291 67.0049C118.661 67.0049 118.116 66.9033 117.655 66.7001C117.197 66.4969 116.836 66.2136 116.573 65.8501C116.313 65.4866 116.165 65.0645 116.131 64.5837H117.23C117.259 64.9157 117.37 65.1904 117.565 65.4079C117.762 65.6226 118.011 65.7828 118.312 65.8887C118.615 65.9918 118.941 66.0433 119.291 66.0433C119.697 66.0433 120.062 65.9775 120.385 65.8458C120.709 65.7113 120.965 65.5253 121.154 65.2877C121.343 65.0473 121.437 64.7668 121.437 64.4463C121.437 64.1544 121.355 63.9169 121.192 63.7337C121.029 63.5505 120.815 63.4017 120.548 63.2872C120.282 63.1727 119.995 63.0726 119.685 62.9867L118.604 62.6776C117.917 62.4802 117.373 62.1983 116.972 61.8319C116.572 61.4656 116.371 60.9862 116.371 60.3938C116.371 59.9016 116.504 59.4723 116.771 59.1059C117.04 58.7367 117.4 58.4505 117.852 58.2473C118.307 58.0413 118.815 57.9383 119.376 57.9383C119.943 57.9383 120.447 58.0399 120.888 58.2431C121.328 58.4434 121.677 58.7181 121.935 59.0673C122.195 59.4165 122.333 59.8128 122.347 60.2564H121.317ZM123.737 59.0029V58.0585H130.331V59.0029H127.566V66.8503H126.502V59.0029H123.737ZM131.974 66.8503V58.0585H137.28V59.0029H133.039V61.9736H137.005V62.918H133.039V65.9059H137.349V66.8503H131.974ZM139.199 66.8503V58.0585H142.17C142.856 58.0585 143.42 58.1758 143.861 58.4105C144.302 58.6423 144.628 58.9614 144.84 59.3678C145.052 59.7742 145.157 60.2364 145.157 60.7544C145.157 61.2724 145.052 61.7318 144.84 62.1324C144.628 62.5331 144.303 62.8479 143.865 63.0769C143.427 63.303 142.868 63.416 142.187 63.416H139.783V62.4544H142.152C142.622 62.4544 143 62.3857 143.286 62.2483C143.575 62.111 143.784 61.9164 143.913 61.6645C144.044 61.4098 144.11 61.1064 144.11 60.7544C144.11 60.4024 144.044 60.0947 143.913 59.8314C143.781 59.5681 143.571 59.3649 143.281 59.2218C142.992 59.0759 142.61 59.0029 142.135 59.0029H140.264V66.8503H139.199ZM143.337 62.9009L145.501 66.8503H144.265L142.135 62.9009H143.337ZM146.932 66.8503V58.0585H152.238V59.0029H147.996V61.9736H151.963V62.918H147.996V65.9059H152.306V66.8503H146.932ZM156.87 66.8503H154.156V58.0585H156.99C157.843 58.0585 158.572 58.2345 159.179 58.5865C159.786 58.9356 160.251 59.4379 160.574 60.0933C160.898 60.7458 161.059 61.5271 161.059 62.4372C161.059 63.3531 160.896 64.1415 160.57 64.8026C160.244 65.4609 159.769 65.9674 159.145 66.3223C158.521 66.6743 157.763 66.8503 156.87 66.8503ZM155.221 65.9059H156.801C157.528 65.9059 158.13 65.7657 158.608 65.4852C159.086 65.2047 159.442 64.8055 159.677 64.2875C159.912 63.7695 160.029 63.1527 160.029 62.4372C160.029 61.7275 159.913 61.1164 159.681 60.6042C159.45 60.089 159.103 59.6941 158.643 59.4193C158.182 59.1417 157.608 59.0029 156.921 59.0029H155.221V65.9059ZM166.846 63.7766C166.635 63.7766 166.453 63.7008 166.301 63.5491C166.149 63.3974 166.074 63.2157 166.074 63.0039C166.074 62.7921 166.149 62.6104 166.301 62.4587C166.453 62.307 166.635 62.2312 166.846 62.2312C167.058 62.2312 167.24 62.307 167.392 62.4587C167.543 62.6104 167.619 62.7921 167.619 63.0039C167.619 63.1441 167.583 63.2729 167.512 63.3903C167.443 63.5076 167.35 63.602 167.233 63.6736C167.118 63.7423 166.989 63.7766 166.846 63.7766ZM175.619 57.9383C175.979 57.9411 176.34 58.0098 176.701 58.1443C177.061 58.2788 177.39 58.5021 177.688 58.814C177.986 59.1231 178.225 59.5452 178.405 60.0804C178.585 60.6156 178.675 61.2867 178.675 62.0938C178.675 62.8751 178.601 63.5691 178.452 64.1759C178.306 64.7797 178.094 65.2892 177.817 65.7041C177.542 66.1191 177.207 66.4339 176.812 66.6486C176.42 66.8632 175.977 66.9705 175.482 66.9705C174.989 66.9705 174.55 66.8732 174.164 66.6786C173.78 66.4812 173.465 66.2078 173.219 65.8587C172.976 65.5067 172.82 65.0988 172.751 64.6352H173.799C173.893 65.0387 174.081 65.3721 174.361 65.6354C174.644 65.8959 175.018 66.0261 175.482 66.0261C176.16 66.0261 176.695 65.7299 177.087 65.1375C177.482 64.545 177.679 63.7079 177.679 62.6261H177.611C177.451 62.8665 177.26 63.074 177.04 63.2486C176.819 63.4232 176.575 63.5577 176.306 63.6521C176.037 63.7466 175.751 63.7938 175.447 63.7938C174.943 63.7938 174.481 63.6693 174.061 63.4203C173.643 63.1685 173.308 62.8236 173.056 62.3857C172.807 61.945 172.683 61.4413 172.683 60.8746C172.683 60.3366 172.803 59.8443 173.043 59.3978C173.286 58.9485 173.627 58.5908 174.065 58.3246C174.506 58.0585 175.024 57.9297 175.619 57.9383ZM175.619 58.8827C175.258 58.8827 174.933 58.9729 174.644 59.1532C174.358 59.3306 174.131 59.571 173.962 59.8744C173.796 60.1749 173.713 60.5083 173.713 60.8746C173.713 61.2409 173.793 61.5744 173.953 61.8749C174.116 62.1725 174.338 62.41 174.619 62.5875C174.902 62.7621 175.224 62.8493 175.585 62.8493C175.856 62.8493 176.11 62.7964 176.344 62.6905C176.579 62.5818 176.784 62.4344 176.958 62.2483C177.136 62.0595 177.275 61.8462 177.375 61.6087C177.475 61.3683 177.525 61.1179 177.525 60.8574C177.525 60.514 177.442 60.192 177.276 59.8915C177.113 59.591 176.887 59.3478 176.598 59.1617C176.311 58.9757 175.985 58.8827 175.619 58.8827ZM180.364 66.8503V66.0776L183.266 62.9009C183.606 62.5288 183.887 62.2054 184.107 61.9307C184.327 61.6531 184.491 61.3926 184.596 61.1494C184.705 60.9032 184.76 60.6457 184.76 60.3766C184.76 60.0675 184.685 59.8 184.536 59.5739C184.39 59.3478 184.19 59.1732 183.935 59.0501C183.681 58.9271 183.394 58.8655 183.077 58.8655C182.739 58.8655 182.444 58.9356 182.192 59.0759C181.943 59.2133 181.75 59.4064 181.613 59.6554C181.478 59.9044 181.411 60.1963 181.411 60.5312H180.398C180.398 60.016 180.517 59.5638 180.754 59.1746C180.992 58.7854 181.315 58.482 181.724 58.2645C182.137 58.047 182.599 57.9383 183.111 57.9383C183.626 57.9383 184.083 58.047 184.481 58.2645C184.878 58.482 185.19 58.7754 185.416 59.1446C185.642 59.5138 185.756 59.9244 185.756 60.3766C185.756 60.7 185.697 61.0163 185.58 61.3254C185.465 61.6316 185.265 61.9736 184.979 62.3514C184.695 62.7263 184.302 63.1842 183.798 63.7251L181.823 65.8372V65.9059H185.91V66.8503H180.364ZM188.439 66.919C188.227 66.919 188.045 66.8432 187.893 66.6915C187.742 66.5398 187.666 66.3581 187.666 66.1463C187.666 65.9345 187.742 65.7528 187.893 65.6011C188.045 65.4494 188.227 65.3736 188.439 65.3736C188.65 65.3736 188.832 65.4494 188.984 65.6011C189.135 65.7528 189.211 65.9345 189.211 66.1463C189.211 66.2865 189.176 66.4153 189.104 66.5327C189.035 66.65 188.942 66.7445 188.825 66.816C188.71 66.8847 188.582 66.919 188.439 66.919ZM190.806 65.0473V64.1716L194.67 58.0585H195.305V59.415H194.876L191.957 64.0342V64.1029H197.16V65.0473H190.806ZM194.944 66.8503V64.7812V64.3733V58.0585H195.958V66.8503H194.944ZM203.25 65.2019V64.7382C203.25 64.4177 203.316 64.1243 203.448 63.8582C203.582 63.5892 203.777 63.3745 204.032 63.2142C204.289 63.0511 204.601 62.9696 204.967 62.9696C205.339 62.9696 205.651 63.0511 205.903 63.2142C206.155 63.3745 206.345 63.5892 206.474 63.8582C206.603 64.1243 206.667 64.4177 206.667 64.7382V65.2019C206.667 65.5224 206.602 65.8172 206.47 66.0862C206.341 66.3524 206.149 66.567 205.895 66.7301C205.643 66.8904 205.334 66.9705 204.967 66.9705C204.595 66.9705 204.282 66.8904 204.027 66.7301C203.773 66.567 203.579 66.3524 203.448 66.0862C203.316 65.8172 203.25 65.5224 203.25 65.2019ZM204.126 64.7382V65.2019C204.126 65.468 204.189 65.707 204.315 65.9188C204.441 66.1277 204.658 66.2322 204.967 66.2322C205.268 66.2322 205.48 66.1277 205.603 65.9188C205.729 65.707 205.792 65.468 205.792 65.2019V64.7382C205.792 64.4721 205.732 64.2345 205.611 64.0256C205.491 63.8138 205.276 63.7079 204.967 63.7079C204.667 63.7079 204.451 63.8138 204.319 64.0256C204.19 64.2345 204.126 64.4721 204.126 64.7382ZM198.871 60.1706V59.7069C198.871 59.3864 198.937 59.0931 199.069 58.8269C199.203 58.5579 199.398 58.3432 199.653 58.183C199.91 58.0198 200.222 57.9383 200.589 57.9383C200.961 57.9383 201.273 58.0198 201.524 58.183C201.776 58.3432 201.967 58.5579 202.095 58.8269C202.224 59.0931 202.289 59.3864 202.289 59.7069V60.1706C202.289 60.4911 202.223 60.7859 202.091 61.0549C201.962 61.3211 201.771 61.5357 201.516 61.6988C201.264 61.8591 200.955 61.9393 200.589 61.9393C200.217 61.9393 199.903 61.8591 199.648 61.6988C199.394 61.5357 199.201 61.3211 199.069 61.0549C198.937 60.7859 198.871 60.4911 198.871 60.1706ZM199.747 59.7069V60.1706C199.747 60.4367 199.81 60.6757 199.936 60.8875C200.062 61.0964 200.28 61.2009 200.589 61.2009C200.889 61.2009 201.101 61.0964 201.224 60.8875C201.35 60.6757 201.413 60.4367 201.413 60.1706V59.7069C201.413 59.4408 201.353 59.2032 201.233 58.9943C201.112 58.7825 200.898 58.6766 200.589 58.6766C200.288 58.6766 200.072 58.7825 199.94 58.9943C199.812 59.2032 199.747 59.4408 199.747 59.7069ZM199.198 66.8503L205.242 58.0585H206.221L200.176 66.8503H199.198ZM212.145 58.0585H213.416L216.404 65.3564H216.507L219.495 58.0585H220.765V66.8503H219.769V60.1706H219.683L216.936 66.8503H215.974L213.227 60.1706H213.141V66.8503H212.145V58.0585ZM223.261 66.8503H222.144L225.373 58.0585H226.472L229.7 66.8503H228.584L225.956 59.4494H225.888L223.261 66.8503ZM223.673 63.416H228.172V64.3605H223.673V63.416ZM229.561 59.0029V58.0585H236.155V59.0029H233.391V66.8503H232.326V59.0029H229.561ZM244.507 60.8059H243.443C243.38 60.4997 243.269 60.2307 243.112 59.9989C242.957 59.767 242.769 59.5724 242.545 59.415C242.325 59.2548 242.08 59.1346 241.811 59.0544C241.542 58.9743 241.262 58.9342 240.97 58.9342C240.438 58.9342 239.955 59.0687 239.523 59.3377C239.094 59.6068 238.752 60.0032 238.497 60.5269C238.245 61.0506 238.119 61.6931 238.119 62.4544C238.119 63.2157 238.245 63.8582 238.497 64.3819C238.752 64.9057 239.094 65.302 239.523 65.5711C239.955 65.8401 240.438 65.9746 240.97 65.9746C241.262 65.9746 241.542 65.9345 241.811 65.8544C242.08 65.7743 242.325 65.6555 242.545 65.4981C242.769 65.3378 242.957 65.1418 243.112 64.9099C243.269 64.6753 243.38 64.4062 243.443 64.1029H244.507C244.427 64.5522 244.281 64.9543 244.069 65.3092C243.858 65.6641 243.594 65.966 243.279 66.215C242.965 66.4611 242.611 66.6486 242.219 66.7774C241.83 66.9061 241.413 66.9705 240.97 66.9705C240.22 66.9705 239.553 66.7874 238.969 66.4211C238.386 66.0547 237.926 65.5338 237.591 64.8584C237.256 64.183 237.089 63.3817 237.089 62.4544C237.089 61.5271 237.256 60.7258 237.591 60.0504C237.926 59.375 238.386 58.8541 238.969 58.4878C239.553 58.1214 240.22 57.9383 240.97 57.9383C241.413 57.9383 241.83 58.0027 242.219 58.1314C242.611 58.2602 242.965 58.4491 243.279 58.6981C243.594 58.9442 243.858 59.2447 244.069 59.5996C244.281 59.9516 244.427 60.3537 244.507 60.8059ZM246.228 66.8503V58.0585H247.292V61.9736H251.98V58.0585H253.045V66.8503H251.98V62.918H247.292V66.8503H246.228Z" fill="#F8A20D"/>
<path d="M18.8375 40.5634V18.5837H40.8172" stroke="#F8A20D" stroke-width="1.64848"/>
<path d="M533.162 40.5634V18.5837H511.183" stroke="#F8A20D" stroke-width="1.64848"/>
<path d="M18.8375 401.031V423.01H40.8172" stroke="#F8A20D" stroke-width="1.64848"/>
<path d="M533.162 401.031V423.01H511.183" stroke="#F8A20D" stroke-width="1.64848"/>
</g>
<g clip-path="url(#clip1_503_1489)">
<g clip-path="url(#clip2_503_1489)">
<path d="M509 59.3125C518.009 59.3125 525.312 52.0091 525.312 43C525.312 33.9909 518.009 26.6875 509 26.6875C499.991 26.6875 492.688 33.9909 492.688 43C492.688 52.0091 499.991 59.3125 509 59.3125Z" stroke="#F8A20D" stroke-width="1.575"/>
<path d="M509 53.125C514.592 53.125 519.125 48.5919 519.125 43C519.125 37.4081 514.592 32.875 509 32.875C503.408 32.875 498.875 37.4081 498.875 43C498.875 48.5919 503.408 53.125 509 53.125Z" stroke="#F8A20D" stroke-width="1.125"/>
<path d="M509 46.5999C510.988 46.5999 512.6 44.9881 512.6 42.9999C512.6 41.0117 510.988 39.3999 509 39.3999C507.012 39.3999 505.4 41.0117 505.4 42.9999C505.4 44.9881 507.012 46.5999 509 46.5999Z" fill="#8D1514"/>
<path opacity="0.9" d="M507.425 42.3249C507.922 42.3249 508.325 41.922 508.325 41.4249C508.325 40.9278 507.922 40.5249 507.425 40.5249C506.928 40.5249 506.525 40.9278 506.525 41.4249C506.525 41.922 506.928 42.3249 507.425 42.3249Z" fill="#F5EEDE"/>
<path d="M509 25.5625V28.9375" stroke="#F8A20D" stroke-width="1.125"/>
<path d="M509 57.0625V60.4375" stroke="#F8A20D" stroke-width="1.125"/>
<path d="M491.562 43H494.938" stroke="#F8A20D" stroke-width="1.125"/>
<path d="M523.062 43H526.438" stroke="#F8A20D" stroke-width="1.125"/>
</g>
</g>
<defs>
<linearGradient id="paint0_linear_503_1489" x1="1.25375" y1="1" x2="430.126" y2="537.09" gradientUnits="userSpaceOnUse">
<stop stop-color="#8D1514" stop-opacity="0.3"/>
<stop offset="1" stop-color="#F8A20D" stop-opacity="0.12"/>
</linearGradient>
<clipPath id="clip0_503_1489">
<rect width="550" height="439.594" fill="white" transform="translate(1 1)"/>
</clipPath>
<clipPath id="clip1_503_1489">
<rect width="36" height="36" fill="white" transform="translate(491 25)"/>
</clipPath>
<clipPath id="clip2_503_1489">
<rect width="36" height="36" fill="white" transform="translate(491 25)"/>
</clipPath>
</defs>
</svg>
